<svg width="101" height="183" viewBox="0 0 101 183" fill="none" xmlns="http://www.w3.org/2000/svg">
<g clip-path="url(#clip0_180_497)">
<path d="M101 183C0 183 55.4361 183 55.4361 183H0C0 146.053 22.6096 116.102 50.5 116.102C78.3904 116.102 101 146.053 101 183Z" fill="#003C04"/>
<path d="M34.1729 99H66.0677V132.198H34.1729V99Z" fill="#003C04"/>
<rect x="15" y="18" width="70" height="85" rx="20" fill="#E7BC98"/>
<path d="M36 84C37.1667 86.8333 41.6 92.1 50 90.5" stroke="#C3946D" stroke-width="4" stroke-linecap="round"/>
<path d="M25 57H15V55H25V57Z" fill="black"/>
<rect x="25" y="46" width="22" height="31" rx="11" stroke="black" stroke-width="2"/>
<path d="M76 57H85V55H76V57Z" fill="black"/>
<rect x="-1" y="1" width="22" height="31" rx="11" transform="matrix(-1 0 0 1 75 45)" stroke="black" stroke-width="2"/>
<path d="M15 60.873V71C10.5817 71 7 66.5228 7 61C7 55.4772 10.5817 51 15 51V60.873Z" fill="#E7BC98"/>
<path d="M15 60.9365V66C12.7909 66 11 63.7614 11 61C11 58.2386 12.7909 56 15 56V60.9365Z" fill="#C3946D"/>
<path d="M85 60.873V71C89.4183 71 93 66.5228 93 61C93 55.4772 89.4183 51 85 51V60.873Z" fill="#E7BC98"/>
<path d="M85 60.9365V66C87.2091 66 89 63.7614 89 61C89 58.2386 87.2091 56 85 56V60.9365Z" fill="#C3946D"/>
<path d="M53.5 76.25C53.5 74.3776 51.4229 72.4276 50.7254 71.8254C50.6604 71.7765 50.5813 71.7501 50.5 71.7501C50.4187 71.7501 50.3396 71.7765 50.2746 71.8254C49.5771 72.4276 47.5 74.3776 47.5 76.25C47.5 77.0456 47.8161 77.8087 48.3787 78.3713C48.9413 78.9339 49.7044 79.25 50.5 79.25C51.2956 79.25 52.0587 78.9339 52.6213 78.3713C53.1839 77.8087 53.5 77.0456 53.5 76.25Z" fill="#C3946D"/>
<path d="M21.9789 65H15V40V37H18.6731H28.5904C22.4196 37 21.9789 46 21.9789 65Z" fill="url(#paint0_linear_180_497)"/>
<path d="M78.0211 65H85V40V37H81.3269H71.4096C77.5804 37 78.0211 46 78.0211 65Z" fill="url(#paint1_linear_180_497)"/>
<path d="M15 35C15 21.1929 26.1929 10 40 10H60C73.8071 10 85 21.1929 85 35V37H15V35Z" fill="#674238"/>
<path d="M57 29.0962C53.2073 29.2179 47.2986 33.2615 56.4011 47C41.5496 42.9077 38.6351 32.6282 39.0344 28L57 29.0962Z" fill="#674238"/>
<path d="M73 17.9038C69.2073 17.7821 63.2986 13.7385 72.4011 0C57.5496 4.09231 54.6351 14.3718 55.0344 19L73 17.9038Z" fill="#674238"/>
<path d="M65 28.8077C62.6822 28.8974 59.0713 31.8769 64.634 42C55.5581 38.9846 53.777 31.4103 54.021 28L65 28.8077Z" fill="#674238"/>
<rect x="26" y="47" width="20" height="28.75" rx="10" fill="white"/>
<rect x="37" y="54" width="7" height="15" rx="3" fill="#003B04"/>
<circle cx="38.5" cy="55.5" r="2.5" fill="white"/>
<rect x="55" y="47" width="20" height="28.75" rx="10" fill="white"/>
<rect x="66" y="54" width="7" height="15" rx="3" fill="#003B04"/>
<circle cx="67.5" cy="55.5" r="2.5" fill="white"/>
<path d="M47 62C48.1667 61.2454 51.2 60.1889 54 62" stroke="black" stroke-width="2"/>
</g>
<defs>
<linearGradient id="paint0_linear_180_497" x1="22.3462" y1="45" x2="22.6312" y2="64.9981" gradientUnits="userSpaceOnUse">
<stop stop-color="#674238"/>
<stop offset="1" stop-color="#E7BC98" stop-opacity="0"/>
</linearGradient>
<linearGradient id="paint1_linear_180_497" x1="77.6538" y1="45" x2="77.3688" y2="64.9981" gradientUnits="userSpaceOnUse">
<stop stop-color="#674238"/>
<stop offset="1" stop-color="#E7BC98" stop-opacity="0"/>
</linearGradient>
<clipPath id="clip0_180_497">
<rect width="101" height="183" fill="white"/>
</clipPath>
</defs>
</svg>
