<svg version="1.2" xmlns="http://www.w3.org/2000/svg" viewBox="0 0 182 325" width="182" height="325">
	<title>&lt;Group&gt;</title>
	<defs>
		<radialGradient id="g1" cx="0" cy="0" r="1" gradientUnits="userSpaceOnUse" gradientTransform="matrix(34.238,0,0,34.238,114.453,59.065)">
			<stop offset=".022" stop-color="#d35729"/>
			<stop offset="1" stop-color="#9b3136"/>
		</radialGradient>
		<clipPath clipPathUnits="userSpaceOnUse" id="cp1">
			<path d="m153.99 55.77c0 0 2.72-19.58 2.72-24.24 0-4.66-149.05-6.26-152.02-2.91-4.01 4.53 0.91 27.08 0.91 27.08z"/>
		</clipPath>
		<radialGradient id="g2" cx="0" cy="0" r="1" gradientUnits="userSpaceOnUse" gradientTransform="matrix(67.672,0,0,67.672,82.143,193.858)">
			<stop offset="0" stop-color="#9692ab"/>
			<stop offset="1" stop-color="#6a3f73"/>
		</radialGradient>
		<radialGradient id="g3" cx="0" cy="0" r="1" gradientUnits="userSpaceOnUse" gradientTransform="matrix(53.61,0,0,53.61,78.317,313.889)">
			<stop offset="0" stop-color="#7f7a99"/>
			<stop offset="1" stop-color="#6a3f73"/>
		</radialGradient>
		<linearGradient id="g4" x2="1" gradientUnits="userSpaceOnUse" gradientTransform="matrix(0,-12.722,7.003,0,64.749,319.845)">
			<stop offset="0" stop-color="#a99aab"/>
			<stop offset="1" stop-color="#310041"/>
		</linearGradient>
	</defs>
	<style>
		.s0 { fill: #470922 } 
		.s1 { fill: url(#g1) } 
		.s2 { fill: #d72a2d } 
		.s3 { fill: #d72b2d } 
		.s4 { fill: #d82c2e } 
		.s5 { fill: #d82d2e } 
		.s6 { fill: #d92e2e } 
		.s7 { fill: #d92f2f } 
		.s8 { fill: #da302f } 
		.s9 { fill: #da3130 } 
		.s10 { fill: #db3230 } 
		.s11 { fill: #db3330 } 
		.s12 { fill: #dc3431 } 
		.s13 { fill: #dc3531 } 
		.s14 { fill: #dd3631 } 
		.s15 { fill: #dd3732 } 
		.s16 { fill: #de3832 } 
		.s17 { fill: #de3932 } 
		.s18 { fill: #df3a33 } 
		.s19 { fill: #df3b33 } 
		.s20 { fill: #e03c33 } 
		.s21 { fill: #e03d34 } 
		.s22 { fill: #e13e34 } 
		.s23 { fill: #e13f35 } 
		.s24 { fill: #e24035 } 
		.s25 { fill: #e24135 } 
		.s26 { fill: #e34236 } 
		.s27 { fill: #e34336 } 
		.s28 { fill: #e44436 } 
		.s29 { fill: #e44537 } 
		.s30 { fill: #e54637 } 
		.s31 { fill: #e54737 } 
		.s32 { fill: #e64838 } 
		.s33 { fill: #e64938 } 
		.s34 { fill: #e74a38 } 
		.s35 { fill: #e74b39 } 
		.s36 { fill: #e84c39 } 
		.s37 { fill: #e84d3a } 
		.s38 { fill: #e94e3a } 
		.s39 { fill: #e94f3a } 
		.s40 { fill: #ea503b } 
		.s41 { fill: #ea513b } 
		.s42 { fill: #eb523b } 
		.s43 { fill: #eb543c } 
		.s44 { fill: #ec553c } 
		.s45 { fill: #ec563c } 
		.s46 { fill: #ed573d } 
		.s47 { fill: #ed583d } 
		.s48 { fill: #ee593d } 
		.s49 { fill: #ee5a3e } 
		.s50 { fill: #ef5b3e } 
		.s51 { fill: #ef5c3f } 
		.s52 { fill: #f05d3f } 
		.s53 { fill: #f05e3f } 
		.s54 { fill: #f15f40 } 
		.s55 { fill: #f16040 } 
		.s56 { fill: #f26140 } 
		.s57 { fill: #f26241 } 
		.s58 { fill: #f36341 } 
		.s59 { fill: #f36441 } 
		.s60 { fill: #f46542 } 
		.s61 { fill: #f46642 } 
		.s62 { fill: #f56742 } 
		.s63 { fill: #f56843 } 
		.s64 { fill: #f66943 } 
		.s65 { fill: #f66a44 } 
		.s66 { fill: #f76b44 } 
		.s67 { fill: #f76c44 } 
		.s68 { fill: #f86d45 } 
		.s69 { fill: #f86e45 } 
		.s70 { fill: #f96f45 } 
		.s71 { fill: #f97046 } 
		.s72 { fill: #fa7146 } 
		.s73 { fill: #fa7246 } 
		.s74 { fill: #fb7347 } 
		.s75 { fill: #fb7447 } 
		.s76 { fill: #fc7547 } 
		.s77 { fill: #fc7648 } 
		.s78 { fill: #fd7748 } 
		.s79 { fill: #fd7849 } 
		.s80 { fill: #fe7949 } 
		.s81 { fill: #fe7a49 } 
		.s82 { fill: #ff7b4a } 
		.s83 { fill: #ff7c4a } 
		.s84 { fill: #680a35 } 
		.s85 { fill: #ffac4a } 
		.s86 { fill: url(#g2) } 
		.s87 { fill: url(#g3) } 
		.s88 { fill: #3b1643 } 
		.s89 { opacity: .5;mix-blend-mode: multiply;fill: url(#g4) } 
		.s90 { opacity: .2;mix-blend-mode: screen;fill: #ffdba7 } 
		.s91 { opacity: .5;mix-blend-mode: screen;fill: #ffffdb } 
		.s92 { fill: #602745 } 
	</style>
	<g id="&lt;Group&gt;">
		<path id="&lt;Path&gt;" class="s0" d="m2.2 55.8l3.7 12.1h73.8v-13z"/>
		<path id="&lt;Path&gt;" class="s1" d="m156.7 55.8l-77-0.9v13l75.3 1.3z"/>
		<g id="&lt;Group&gt;">
			<g id="&lt;Clip Group&gt;" clip-path="url(#cp1)">
				<path id="&lt;Path&gt;" class="s2" d="m0.7 25.3h156v30.5h-156z"/>
				<path id="&lt;Path&gt;" class="s2" d="m53.2 30.7c0-10.9 8.5-20.7 22.3-27.8v19.2h84.3v36.8h-30.5v11.1c-42 0-76.1-17.6-76.1-39.3z"/>
				<path id="&lt;Path&gt;" class="s3" d="m54.1 30.7c0-10.8 8.4-20.5 22-27.5v18.9h83.7v36.8h-30.5v10.6c-41.5 0-75.2-17.4-75.2-38.8z"/>
				<path id="&lt;Path&gt;" class="s4" d="m55 30.7c0-10.6 8.3-20.2 21.8-27.2v18.6h83v36.8h-30.5v10.1c-41 0-74.3-17.1-74.3-38.3z"/>
				<path id="&lt;Path&gt;" class="s5" d="m55.9 30.7c0-10.5 8.3-20 21.5-26.8v18.2h82.4v35.4h21.4c-13.3 6.8-31.7 11.1-51.9 11.1-40.5 0-73.4-17-73.4-37.9z"/>
				<path id="&lt;Path&gt;" class="s6" d="m56.9 30.7c0-10.4 8.1-19.7 21.2-26.5v17.9h81.7v35h20.7c-13.1 6.8-31.2 11-51.2 11-40 0-72.4-16.8-72.4-37.4z"/>
				<path id="&lt;Path&gt;" class="s7" d="m57.8 30.7c0-10.2 8-19.5 20.9-26.2v17.6h81.1v34.7h20.1c-13 6.7-30.9 10.8-50.6 10.8-39.5 0-71.5-16.5-71.5-36.9z"/>
				<path id="&lt;Path&gt;" class="s8" d="m58.7 30.7c0-10.1 7.9-19.2 20.7-25.8v17.2h80.4v34.4h19.4c-12.7 6.6-30.4 10.7-49.9 10.7-39 0-70.6-16.4-70.6-36.5z"/>
				<path id="&lt;Path&gt;" class="s9" d="m59.6 30.7c0-10 7.8-19 20.4-25.5v16.9h79.8v34h18.8c-12.6 6.6-30.1 10.6-49.3 10.6-38.5 0-69.7-16.1-69.7-36z"/>
				<path id="&lt;Path&gt;" class="s10" d="m60.5 30.7c0-9.8 7.7-18.7 20.1-25.2v16.6h79.2v33.7h18.2c-12.5 6.4-29.7 10.4-48.7 10.4-38 0-68.8-15.9-68.8-35.5z"/>
				<path id="&lt;Path&gt;" class="s11" d="m61.4 30.7c0-9.7 7.6-18.5 19.9-24.8v16.2h78.5v33.4h17.5c-12.3 6.3-29.3 10.2-48 10.2-37.5 0-67.9-15.7-67.9-35z"/>
				<path id="&lt;Path&gt;" class="s12" d="m62.3 30.7c0-9.6 7.5-18.2 19.6-24.5v15.9h77.9v33h16.9c-12.2 6.3-28.9 10.2-47.4 10.2-37 0-67-15.5-67-34.6z"/>
				<path id="&lt;Path&gt;" class="s13" d="m63.2 30.7c0-9.5 7.4-18 19.4-24.2v15.6h77.2v32.7h16.2c-11.9 6.2-28.5 10-46.7 10-36.5 0-66.1-15.3-66.1-34.1z"/>
				<path id="&lt;Path&gt;" class="s14" d="m64.1 30.7c0-9.3 7.3-17.8 19.1-23.8v15.2h76.6v32.4h15.6c-11.8 6.1-28.1 9.8-46.1 9.8-36 0-65.2-15-65.2-33.6z"/>
				<path id="&lt;Path&gt;" class="s15" d="m65 30.7c0-9.2 7.2-17.5 18.8-23.5v14.9h76v32h14.9c-11.6 6.1-27.7 9.8-45.4 9.8-35.5 0-64.3-14.9-64.3-33.2z"/>
				<path id="&lt;Path&gt;" class="s16" d="m65.9 30.7c0-9.1 7.1-17.3 18.6-23.2v14.6h75.3v31.7h14.3c-11.5 5.9-27.3 9.6-44.8 9.6-35 0-63.4-14.7-63.4-32.7z"/>
				<path id="&lt;Path&gt;" class="s17" d="m66.8 30.7c0-8.9 7-17 18.3-22.9v14.3h74.7v31.4h13.7c-11.3 5.8-27 9.4-44.2 9.4-34.5 0-62.5-14.4-62.5-32.2z"/>
				<path id="&lt;Path&gt;" class="s18" d="m67.7 30.7c0-8.8 6.9-16.8 18.1-22.5v13.9h74v31.1h13c-11.1 5.7-26.5 9.3-43.5 9.3-34 0-61.6-14.3-61.6-31.8z"/>
				<path id="&lt;Path&gt;" class="s19" d="m68.6 30.7c0-8.7 6.8-16.5 17.8-22.2v13.6h73.4v30.7h12.4c-11 5.7-26.2 9.2-42.9 9.2-33.5 0-60.7-14-60.7-31.3z"/>
				<path id="&lt;Path&gt;" class="s20" d="m69.5 30.7c0-8.6 6.7-16.3 17.5-21.9v13.3h72.8v30.4h11.7c-10.8 5.6-25.7 9-42.2 9-33 0-59.8-13.8-59.8-30.8z"/>
				<path id="&lt;Path&gt;" class="s21" d="m70.5 30.7c0-16.8 26.3-30.4 58.8-30.4v21.8h30.5v30.1h11.1c-10.6 5.5-25.4 8.9-41.6 8.9-32.5 0-58.8-13.6-58.8-30.4z"/>
				<path id="&lt;Path&gt;" class="s22" d="m71.4 30.7c0-16.6 25.9-30 57.9-30v21.4h30.5v29.7h10.5c-10.5 5.4-25 8.8-41 8.8-32 0-57.9-13.4-57.9-29.9z"/>
				<path id="&lt;Path&gt;" class="s23" d="m72.3 30.7c0-16.3 25.5-29.5 57-29.5v20.9h30.5v29.4h9.8c-10.3 5.3-24.6 8.6-40.3 8.6-31.5 0-57-13.2-57-29.4z"/>
				<path id="&lt;Path&gt;" class="s24" d="m73.2 30.7c0-16 25.1-29 56.1-29v20.4h30.5v29.1h9.2c-10.2 5.2-24.2 8.5-39.7 8.5-31 0-56.1-13-56.1-29z"/>
				<path id="&lt;Path&gt;" class="s25" d="m74.1 30.7c0-15.8 24.7-28.6 55.2-28.6v20h30.5v28.7h8.5c-10 5.2-23.8 8.4-39 8.4-30.5 0-55.2-12.8-55.2-28.5z"/>
				<path id="&lt;Path&gt;" class="s26" d="m75 30.7c0-15.5 24.3-28.1 54.3-28.1v19.5h30.5v28.4h7.9c-9.8 5.1-23.4 8.2-38.4 8.2-30 0-54.3-12.5-54.3-28z"/>
				<path id="&lt;Path&gt;" class="s27" d="m75.9 30.7c0-15.3 23.9-27.6 53.4-27.6v19h30.5v28.1h7.3c-9.7 5-23.1 8.1-37.8 8.1-29.5 0-53.4-12.4-53.4-27.6z"/>
				<path id="&lt;Path&gt;" class="s28" d="m76.8 30.7c0-15 23.5-27.1 52.5-27.1v18.5h30.5v27.7h6.6c-9.5 4.9-22.6 8-37.1 8-29 0-52.5-12.2-52.5-27.1z"/>
				<path id="&lt;Path&gt;" class="s29" d="m77.7 30.7c0-14.8 23.1-26.7 51.6-26.7 28.5 0 51.6 11.9 51.6 26.7 0 14.7-23.1 26.6-51.6 26.6-28.5 0-51.6-11.9-51.6-26.6z"/>
				<path id="&lt;Path&gt;" class="s30" d="m78.6 30.7c0-14.5 22.7-26.2 50.7-26.2 28 0 50.7 11.7 50.7 26.2 0 14.4-22.7 26.1-50.7 26.1-28 0-50.7-11.7-50.7-26.1z"/>
				<path id="&lt;Path&gt;" class="s31" d="m79.5 30.7c0-14.2 22.3-25.7 49.8-25.7 27.5 0 49.8 11.5 49.8 25.7 0 14.2-22.3 25.7-49.8 25.7-27.5 0-49.8-11.5-49.8-25.7z"/>
				<path id="&lt;Path&gt;" class="s32" d="m80.4 30.7c0-14 21.9-25.3 48.9-25.3 27 0 48.9 11.3 48.9 25.3 0 13.9-21.9 25.2-48.9 25.2-27 0-48.9-11.3-48.9-25.2z"/>
				<path id="&lt;Path&gt;" class="s33" d="m81.3 30.7c0-13.7 21.5-24.8 48-24.8 26.5 0 47.9 11.1 47.9 24.8 0 13.6-21.4 24.7-47.9 24.7-26.5 0-48-11.1-48-24.7z"/>
				<path id="&lt;Path&gt;" class="s34" d="m82.2 30.7c0-13.5 21.1-24.3 47.1-24.3 26 0 47 10.8 47 24.3 0 13.4-21 24.3-47 24.3-26 0-47.1-10.9-47.1-24.3z"/>
				<path id="&lt;Path&gt;" class="s35" d="m83.1 30.7c0-13.2 20.7-23.9 46.2-23.9 25.5 0 46.1 10.7 46.1 23.9 0 13.1-20.6 23.8-46.1 23.8-25.5 0-46.2-10.7-46.2-23.8z"/>
				<path id="&lt;Path&gt;" class="s36" d="m84.1 30.7c0-12.9 20.2-23.4 45.2-23.4 25 0 45.2 10.5 45.2 23.4 0 12.9-20.2 23.3-45.2 23.3-25 0-45.2-10.4-45.2-23.3z"/>
				<path id="&lt;Path&gt;" class="s37" d="m85 30.7c0-12.7 19.8-22.9 44.3-22.9 24.5 0 44.3 10.2 44.3 22.9 0 12.6-19.8 22.9-44.3 22.9-24.5 0-44.3-10.3-44.3-22.9z"/>
				<path id="&lt;Path&gt;" class="s38" d="m85.9 30.7c0-12.4 19.4-22.5 43.4-22.5 24 0 43.4 10.1 43.4 22.5 0 12.4-19.4 22.4-43.4 22.4-24 0-43.4-10-43.4-22.4z"/>
				<path id="&lt;Path&gt;" class="s39" d="m86.8 30.7c0-12.2 19-22 42.5-22 23.5 0 42.5 9.8 42.5 22 0 12.1-19 21.9-42.5 21.9-23.5 0-42.5-9.8-42.5-21.9z"/>
				<path id="&lt;Path&gt;" class="s40" d="m87.7 30.7c0-11.9 18.6-21.5 41.6-21.5 23 0 41.6 9.6 41.6 21.5 0 11.8-18.6 21.5-41.6 21.5-23 0-41.6-9.7-41.6-21.5z"/>
				<path id="&lt;Path&gt;" class="s41" d="m88.6 30.7c0-11.6 18.2-21.1 40.7-21.1 22.5 0 40.7 9.5 40.7 21.1 0 11.6-18.2 21-40.7 21-22.5 0-40.7-9.4-40.7-21z"/>
				<path id="&lt;Path&gt;" class="s42" d="m89.5 30.7c0-11.4 17.8-20.6 39.8-20.6 22 0 39.8 9.2 39.8 20.6 0 11.3-17.8 20.5-39.8 20.5-22 0-39.8-9.2-39.8-20.5z"/>
				<path id="&lt;Path&gt;" class="s43" d="m90.4 30.7c0-11.1 17.4-20.1 38.9-20.1 21.5 0 38.9 9 38.9 20.1 0 11.1-17.4 20.1-38.9 20.1-21.5 0-38.9-9-38.9-20.1z"/>
				<path id="&lt;Path&gt;" class="s44" d="m91.3 30.7c0-10.9 17-19.7 38-19.7 21 0 38 8.8 38 19.7 0 10.8-17 19.6-38 19.6-21 0-38-8.8-38-19.6z"/>
				<path id="&lt;Path&gt;" class="s45" d="m92.2 30.7c0-10.6 16.6-19.2 37.1-19.2 20.5 0 37.1 8.6 37.1 19.2 0 10.5-16.6 19.1-37.1 19.1-20.5 0-37.1-8.6-37.1-19.1z"/>
				<path id="&lt;Path&gt;" class="s46" d="m93.1 30.7c0-10.4 16.2-18.7 36.2-18.7 20 0 36.2 8.3 36.2 18.7 0 10.3-16.2 18.7-36.2 18.7-20 0-36.2-8.4-36.2-18.7z"/>
				<path id="&lt;Path&gt;" class="s47" d="m94 30.7c0-10.1 15.8-18.2 35.3-18.2 19.5 0 35.3 8.1 35.3 18.2 0 10-15.8 18.2-35.3 18.2-19.5 0-35.3-8.2-35.3-18.2z"/>
				<path id="&lt;Path&gt;" class="s48" d="m94.9 30.7c0-9.8 15.4-17.8 34.4-17.8 19 0 34.3 8 34.3 17.8 0 9.8-15.3 17.7-34.3 17.7-19 0-34.4-7.9-34.4-17.7z"/>
				<path id="&lt;Path&gt;" class="s49" d="m95.8 30.7c0-9.6 15-17.3 33.5-17.3 18.5 0 33.4 7.7 33.4 17.3 0 9.5-14.9 17.2-33.4 17.2-18.5 0-33.5-7.7-33.5-17.2z"/>
				<path id="&lt;Path&gt;" class="s50" d="m96.8 30.7c0-9.3 14.5-16.8 32.5-16.8 18 0 32.5 7.5 32.5 16.8 0 9.3-14.5 16.8-32.5 16.8-18 0-32.5-7.5-32.5-16.8z"/>
				<path id="&lt;Path&gt;" class="s51" d="m97.7 30.7c0-9.1 14.1-16.4 31.6-16.4 17.5 0 31.6 7.3 31.6 16.4 0 9-14.1 16.3-31.6 16.3-17.5 0-31.6-7.3-31.6-16.3z"/>
				<path id="&lt;Path&gt;" class="s52" d="m98.6 30.7c0-8.8 13.7-15.9 30.7-15.9 17 0 30.7 7.1 30.7 15.9 0 8.7-13.7 15.8-30.7 15.8-17 0-30.7-7.1-30.7-15.8z"/>
				<path id="&lt;Path&gt;" class="s53" d="m99.5 30.7c0-8.5 13.3-15.4 29.8-15.4 16.5 0 29.8 6.9 29.8 15.4 0 8.5-13.3 15.4-29.8 15.4-16.5 0-29.8-6.9-29.8-15.4z"/>
				<path id="&lt;Path&gt;" class="s54" d="m100.4 30.7c0-8.3 12.9-15 28.9-15 16 0 28.9 6.7 28.9 15 0 8.2-12.9 14.9-28.9 14.9-16 0-28.9-6.7-28.9-14.9z"/>
				<path id="&lt;Path&gt;" class="s55" d="m101.3 30.7c0-8 12.5-14.5 28-14.5 15.5 0 28 6.5 28 14.5 0 8-12.5 14.4-28 14.4-15.5 0-28-6.4-28-14.4z"/>
				<path id="&lt;Path&gt;" class="s56" d="m102.2 30.7c0-7.8 12.1-14 27.1-14 15 0 27.1 6.2 27.1 14 0 7.7-12.1 14-27.1 14-15 0-27.1-6.3-27.1-14z"/>
				<path id="&lt;Path&gt;" class="s57" d="m103.1 30.7c0-7.5 11.7-13.6 26.2-13.6 14.5 0 26.2 6.1 26.2 13.6 0 7.4-11.7 13.5-26.2 13.5-14.5 0-26.2-6.1-26.2-13.5z"/>
				<path id="&lt;Path&gt;" class="s58" d="m104 30.7c0-7.2 11.3-13.1 25.3-13.1 14 0 25.3 5.9 25.3 13.1 0 7.2-11.3 13-25.3 13-14 0-25.3-5.8-25.3-13z"/>
				<path id="&lt;Path&gt;" class="s59" d="m104.9 30.7c0-7 10.9-12.6 24.4-12.6 13.5 0 24.4 5.6 24.4 12.6 0 6.9-10.9 12.6-24.4 12.6-13.5 0-24.4-5.7-24.4-12.6z"/>
				<path id="&lt;Path&gt;" class="s60" d="m105.8 30.7c0-6.7 10.5-12.2 23.5-12.2 13 0 23.5 5.5 23.5 12.2 0 6.7-10.5 12.1-23.5 12.1-13 0-23.5-5.4-23.5-12.1z"/>
				<path id="&lt;Path&gt;" class="s61" d="m106.7 30.7c0-6.5 10.1-11.7 22.6-11.7 12.5 0 22.6 5.2 22.6 11.7 0 6.4-10.1 11.6-22.6 11.6-12.5 0-22.6-5.2-22.6-11.6z"/>
				<path id="&lt;Path&gt;" class="s62" d="m107.6 30.7c0-6.2 9.7-11.2 21.7-11.2 12 0 21.7 5 21.7 11.2 0 6.1-9.7 11.2-21.7 11.2-12 0-21.7-5.1-21.7-11.2z"/>
				<path id="&lt;Path&gt;" class="s63" d="m108.5 30.7c0-6 9.3-10.8 20.8-10.8 11.5 0 20.7 4.8 20.7 10.8 0 5.9-9.2 10.7-20.7 10.7-11.5 0-20.8-4.8-20.8-10.7z"/>
				<path id="&lt;Path&gt;" class="s64" d="m109.4 30.7c0-5.7 8.9-10.3 19.9-10.3 11 0 19.8 4.6 19.8 10.3 0 5.6-8.8 10.2-19.8 10.2-11 0-19.9-4.6-19.9-10.2z"/>
				<path id="&lt;Path&gt;" class="s65" d="m110.4 30.7c0-5.4 8.4-9.8 18.9-9.8 10.5 0 18.9 4.4 18.9 9.8 0 5.4-8.4 9.7-18.9 9.7-10.5 0-18.9-4.3-18.9-9.7z"/>
				<path id="&lt;Path&gt;" class="s66" d="m111.3 30.7c0-5.2 8-9.3 18-9.3 10 0 18 4.1 18 9.3 0 5.1-8 9.3-18 9.3-10 0-18-4.2-18-9.3z"/>
				<path id="&lt;Path&gt;" class="s67" d="m112.2 30.7c0-4.9 7.6-8.9 17.1-8.9 9.5 0 17.1 4 17.1 8.9 0 4.9-7.6 8.8-17.1 8.8-9.5 0-17.1-3.9-17.1-8.8z"/>
				<path id="&lt;Path&gt;" class="s68" d="m113.1 30.7c0-4.7 7.2-8.4 16.2-8.4 9 0 16.2 3.7 16.2 8.4 0 4.6-7.2 8.3-16.2 8.3-9 0-16.2-3.7-16.2-8.3z"/>
				<path id="&lt;Path&gt;" class="s69" d="m114 30.7c0-4.4 6.8-7.9 15.3-7.9 8.4 0 15.3 3.5 15.3 7.9 0 4.3-6.9 7.9-15.3 7.9-8.5 0-15.3-3.6-15.3-7.9z"/>
				<path id="&lt;Path&gt;" class="s70" d="m114.9 30.7c0-4.1 6.4-7.5 14.4-7.5 7.9 0 14.4 3.4 14.4 7.5 0 4.1-6.5 7.4-14.4 7.4-8 0-14.4-3.3-14.4-7.4z"/>
				<path id="&lt;Path&gt;" class="s71" d="m115.8 30.7c0-3.9 6-7 13.5-7 7.4 0 13.5 3.1 13.5 7 0 3.8-6.1 6.9-13.5 6.9-7.5 0-13.5-3.1-13.5-6.9z"/>
				<path id="&lt;Path&gt;" class="s72" d="m116.7 30.7c0-3.6 5.6-6.5 12.6-6.5 6.9 0 12.6 2.9 12.6 6.5 0 3.6-5.7 6.5-12.6 6.5-7 0-12.6-2.9-12.6-6.5z"/>
				<path id="&lt;Path&gt;" class="s73" d="m117.6 30.7c0-3.4 5.2-6.1 11.7-6.1 6.4 0 11.7 2.7 11.7 6.1 0 3.3-5.3 6-11.7 6-6.5 0-11.7-2.7-11.7-6z"/>
				<path id="&lt;Path&gt;" class="s74" d="m118.5 30.7c0-3.1 4.8-5.6 10.8-5.6 5.9 0 10.8 2.5 10.8 5.6 0 3-4.9 5.5-10.8 5.5-6 0-10.8-2.5-10.8-5.5z"/>
				<path id="&lt;Path&gt;" class="s75" d="m119.4 30.7c0-2.8 4.4-5.1 9.9-5.1 5.4 0 9.9 2.3 9.9 5.1 0 2.8-4.5 5.1-9.9 5.1-5.5 0-9.9-2.3-9.9-5.1z"/>
				<path id="&lt;Path&gt;" class="s76" d="m120.3 30.7c0-2.6 4-4.7 9-4.7 4.9 0 9 2.1 9 4.7 0 2.5-4.1 4.6-9 4.6-5 0-9-2.1-9-4.6z"/>
				<path id="&lt;Path&gt;" class="s77" d="m121.2 30.7c0-2.3 3.6-4.2 8.1-4.2 4.4 0 8 1.9 8 4.2 0 2.3-3.6 4.1-8 4.1-4.5 0-8.1-1.8-8.1-4.1z"/>
				<path id="&lt;Path&gt;" class="s78" d="m122.1 30.7c0-2.1 3.2-3.7 7.2-3.7 3.9 0 7.1 1.6 7.1 3.7 0 2-3.2 3.7-7.1 3.7-4 0-7.2-1.7-7.2-3.7z"/>
				<path id="&lt;Path&gt;" class="s79" d="m123 30.7c0-1.8 2.8-3.3 6.3-3.3 3.4 0 6.2 1.5 6.2 3.3 0 1.7-2.8 3.2-6.2 3.2-3.5 0-6.3-1.5-6.3-3.2z"/>
				<path id="&lt;Path&gt;" class="s80" d="m124 30.7c0-1.6 2.3-2.8 5.3-2.8 2.9 0 5.3 1.2 5.3 2.8 0 1.5-2.4 2.7-5.3 2.7-3 0-5.3-1.2-5.3-2.7z"/>
				<path id="&lt;Path&gt;" class="s81" d="m124.9 30.7c0-1.3 1.9-2.3 4.4-2.3 2.4 0 4.4 1 4.4 2.3 0 1.2-2 2.3-4.4 2.3-2.5 0-4.4-1.1-4.4-2.3z"/>
				<path id="&lt;Path&gt;" class="s82" d="m125.8 30.7c0-1 1.5-1.9 3.5-1.9 1.9 0 3.5 0.9 3.5 1.9 0 1-1.6 1.8-3.5 1.8-2 0-3.5-0.8-3.5-1.8z"/>
				<path id="&lt;Path&gt;" class="s83" d="m126.7 30.7c0-0.8 1.1-1.4 2.6-1.4 1.4 0 2.6 0.6 2.6 1.4 0 0.7-1.2 1.3-2.6 1.3-1.5 0-2.6-0.6-2.6-1.3z"/>
			</g>
		</g>
		<path id="&lt;Path&gt;" class="s84" d="m81.9 55.7c0 0 1.7-22.8 0-25.7-1.7-3-72.1-4-77.2-1.4-5.1 2.6 0.9 27.1 0.9 27.1z"/>
		<path id="&lt;Path&gt;" class="s85" d="m81.9 30l72.5 0.5c0 0-58.5-10.5-147.2-2.5 0 0 45.2-1.2 74.7 2z"/>
		<path id="&lt;Path&gt;" class="s86" d="m76.9 67.9l-4.1 251.9h6.4l12.3-251.9z"/>
		<path id="&lt;Path&gt;" class="s87" d="m75.4 307.1l-72.6 13.6 151-2.2z"/>
		<path id="&lt;Path&gt;" class="s88" d="m2.8 324.2v-3.5l151-2.2v5.7z"/>
		<path id="&lt;Path&gt;" class="s89" d="m72.8 307.1v12.7h6.4l0.6-11.9-4.4-0.8z"/>
		<path id="&lt;Path&gt;" class="s90" d="m94.9 324.2v-4.9l26.2-0.3v5.2z"/>
		<path id="&lt;Path&gt;" class="s91" d="m76.3 307.3l18.6 12 26.2-0.3-39-10.7z"/>
		<path id="&lt;Path&gt;" class="s92" d="m64.3 67.9l12.4 8.2h14.4l11.9-7.8z"/>
	</g>
</svg>