<svg version="1.2" xmlns="http://www.w3.org/2000/svg" viewBox="0 0 252 109" width="252" height="109">
	<title>&lt;Group&gt;</title>
	<defs>
		<radialGradient id="g1" cx="0" cy="0" r="1" gradientUnits="userSpaceOnUse" gradientTransform="matrix(71.823,0,0,71.823,165.498,52.657)">
			<stop offset=".022" stop-color="#44283c"/>
			<stop offset="1" stop-color="#2f1536"/>
		</radialGradient>
		<radialGradient id="g2" cx="0" cy="0" r="1" gradientUnits="userSpaceOnUse" gradientTransform="matrix(34.329,0,0,34.329,123.247,9.431)">
			<stop offset=".022" stop-color="#44283c"/>
			<stop offset="1" stop-color="#2f1536"/>
		</radialGradient>
	</defs>
	<style>
		.s0 { fill: #120b12 } 
		.s1 { fill: url(#g1) } 
		.s2 { opacity: .2;mix-blend-mode: soft-light;fill: #ffffff } 
		.s3 { opacity: .5;mix-blend-mode: multiply;fill: #7f1f13 } 
		.s4 { fill: #9f4066 } 
		.s5 { fill: #ffb19c } 
		.s6 { fill: url(#g2) } 
		.s7 { opacity: .5;mix-blend-mode: soft-light;fill: #ffffff } 
	</style>
	<g id="&lt;Group&gt;">
		<path id="&lt;Path&gt;" class="s0" d="m77.6 105.5l7.4-67.6-19 2.8-5.4 16.8-57.9 16.5-2.4 31.5z"/>
		<path id="&lt;Path&gt;" class="s1" d="m85 37.9l166.5 4.5-7 63.1h-166.9z"/>
		<path id="&lt;Path&gt;" class="s2" d="m129.3 42.9l-12.1 65.6h49.7l14.9-65.1z"/>
		<path id="&lt;Path&gt;" class="s2" d="m187.3 40.8l-13.5 64.7h13.5l12.6-64.7z"/>
		<path id="&lt;Path&gt;" class="s3" d="m208.8 64.9h-20.2l-3.9-25 26.3 0.9z"/>
		<path id="&lt;Path&gt;" class="s4" d="m173.8 40.1c0 0 5.6-10.3 14.8-10.3l38.3 0.7c0 0-16.4-0.9-22.5 10.7z"/>
		<path id="&lt;Path&gt;" class="s5" d="m188.6 29.8c0 0 16.9 6.1 21.5 43.5l29.7-1.6c0 0 3.1-25.2-12.9-41.2z"/>
		<path id="&lt;Path&gt;" class="s6" d="m85 37.9l6.8-37 68.8 3.4v35.6z"/>
		<path id="&lt;Path&gt;" class="s0" d="m91.8 0.9l-6.8 3.8-6.5 34.1 6.5-0.9z"/>
		<path id="&lt;Path&gt;" class="s7" d="m157.4 37l-66.4-1.6 3.4-29.9 62.1 2.2z"/>
		<path id="&lt;Compound Path&gt;" fill-rule="evenodd" class="s7" d="m110.2 12.2l-0.8 18.6-11.1-0.5 1.1-18.3zm-1.2 0.7h-8.3l-0.9 16.2h8.8z"/>
		<path id="&lt;Compound Path&gt;" fill-rule="evenodd" class="s7" d="m123.5 12.2l-0.8 18.6h-11.1l1.1-18.8zm-1.2 0.7h-8.3l-0.9 16.2h8.7z"/>
		<path id="&lt;Compound Path&gt;" fill-rule="evenodd" class="s7" d="m139.9 12.2l-0.8 18.6h-11.1l1.1-18.8zm-1.2 0.7h-8.3l-0.9 16.2h8.7z"/>
		<path id="&lt;Compound Path&gt;" fill-rule="evenodd" class="s7" d="m152.8 12.2l-0.8 18.6h-11.1l1.1-18.8zm-1.2 0.7h-8.3l-0.9 16.2h8.7z"/>
		<path id="&lt;Path&gt;" class="s0" d="m10.7 71.7v-6.8l51.5-12.5-1.6 5.1z"/>
		<path id="&lt;Path&gt;" class="s0" d="m156.5 7.7l-2.7-0.1 0.6 29.3 3 0.1z"/>
	</g>
</svg>