<svg version="1.2" xmlns="http://www.w3.org/2000/svg" viewBox="0 0 55 156" width="55" height="156">
	<title>&lt;Group&gt;</title>
	<defs>
		<linearGradient id="g1" x2="1" gradientUnits="userSpaceOnUse" gradientTransform="matrix(0,-55.567,30.521,0,-35.21,101.538)">
			<stop offset=".006" stop-color="#312226"/>
			<stop offset=".978" stop-color="#13000f"/>
		</linearGradient>
		<linearGradient id="g2" x2="1" gradientUnits="userSpaceOnUse" gradientTransform="matrix(-3.259,-15.835,18.365,-3.78,14.975,74.924)">
			<stop offset="0" stop-color="#ff866f"/>
			<stop offset="1" stop-color="#ff2f72"/>
		</linearGradient>
		<linearGradient id="g3" x2="1" gradientUnits="userSpaceOnUse" gradientTransform="matrix(-2.039,-9.906,12.857,-2.646,8.808,71.145)">
			<stop offset="0" stop-color="#ff866f"/>
			<stop offset="1" stop-color="#ff6f66"/>
		</linearGradient>
		<linearGradient id="g4" x2="1" gradientUnits="userSpaceOnUse" gradientTransform="matrix(-1.132,-5.498,8.921,-1.836,9.452,73.538)">
			<stop offset="0" stop-color="#ff866f"/>
			<stop offset="1" stop-color="#ff6f66"/>
		</linearGradient>
		<linearGradient id="g5" x2="1" gradientUnits="userSpaceOnUse" gradientTransform="matrix(-3.255,-15.814,12.358,-2.544,12.298,71.543)">
			<stop offset="0" stop-color="#f02d66"/>
			<stop offset="1" stop-color="#ff7e63"/>
		</linearGradient>
		<linearGradient id="g6" x2="1" gradientUnits="userSpaceOnUse" gradientTransform="matrix(-1.032,-5.015,13.044,-2.685,15.831,71.079)">
			<stop offset="0" stop-color="#f05688"/>
			<stop offset="1" stop-color="#f25263"/>
		</linearGradient>
		<linearGradient id="g7" x2="1" gradientUnits="userSpaceOnUse" gradientTransform="matrix(-1.014,-4.927,8.027,-1.652,16.624,68.549)">
			<stop offset="0" stop-color="#f02757"/>
			<stop offset="1" stop-color="#f2695c"/>
		</linearGradient>
		<linearGradient id="g8" x2="1" gradientUnits="userSpaceOnUse" gradientTransform="matrix(-0.893,-4.337,7.231,-1.488,17.663,66.118)">
			<stop offset="0" stop-color="#f02757"/>
			<stop offset="1" stop-color="#f2695c"/>
		</linearGradient>
		<linearGradient id="g9" x2="1" gradientUnits="userSpaceOnUse" gradientTransform="matrix(-1.447,-7.028,6.972,-1.435,11.358,69.572)">
			<stop offset="0" stop-color="#f02757"/>
			<stop offset="1" stop-color="#f2695c"/>
		</linearGradient>
		<linearGradient id="g10" x2="1" gradientUnits="userSpaceOnUse" gradientTransform="matrix(0,-102.604,17.12,0,-269.003,115.495)">
			<stop offset=".006" stop-color="#312226"/>
			<stop offset=".978" stop-color="#13000f"/>
		</linearGradient>
		<linearGradient id="g11" x2="1" gradientUnits="userSpaceOnUse" gradientTransform="matrix(0,-101.796,23.285,0,-194.974,102.359)">
			<stop offset="0" stop-color="#211523"/>
			<stop offset="1" stop-color="#4f3d45"/>
		</linearGradient>
		<linearGradient id="g12" x2="1" gradientUnits="userSpaceOnUse" gradientTransform="matrix(0,-62.359,30.066,0,-25.486,103.434)">
			<stop offset="0" stop-color="#211523"/>
			<stop offset="1" stop-color="#4f3d45"/>
		</linearGradient>
		<radialGradient id="g13" cx="0" cy="0" r="1" gradientUnits="userSpaceOnUse" gradientTransform="matrix(17.037,0,0,17.037,30.492,106.513)">
			<stop offset="0" stop-color="#921a28"/>
			<stop offset="1" stop-color="#57000d"/>
		</radialGradient>
		<linearGradient id="g14" x2="1" gradientUnits="userSpaceOnUse" gradientTransform="matrix(8.421,-16.597,19.249,9.767,30.755,63.935)">
			<stop offset="0" stop-color="#ff866f"/>
			<stop offset="1" stop-color="#ff2f72"/>
		</linearGradient>
		<linearGradient id="g15" x2="1" gradientUnits="userSpaceOnUse" gradientTransform="matrix(4.861,-9.58,10.493,5.324,29.728,50.924)">
			<stop offset="0" stop-color="#ff866f"/>
			<stop offset="1" stop-color="#ff6f66"/>
		</linearGradient>
		<linearGradient id="g16" x2="1" gradientUnits="userSpaceOnUse" gradientTransform="matrix(2.924,-5.762,9.35,4.744,26.776,58.726)">
			<stop offset="0" stop-color="#ff866f"/>
			<stop offset="1" stop-color="#ff6f66"/>
		</linearGradient>
		<linearGradient id="g17" x2="1" gradientUnits="userSpaceOnUse" gradientTransform="matrix(8.41,-16.575,12.953,6.572,30.769,58.97)">
			<stop offset="0" stop-color="#f02d66"/>
			<stop offset="1" stop-color="#ff7e63"/>
		</linearGradient>
		<linearGradient id="g18" x2="1" gradientUnits="userSpaceOnUse" gradientTransform="matrix(2.667,-5.256,13.672,6.937,34.284,61.087)">
			<stop offset="0" stop-color="#f05688"/>
			<stop offset="1" stop-color="#f25263"/>
		</linearGradient>
		<linearGradient id="g19" x2="1" gradientUnits="userSpaceOnUse" gradientTransform="matrix(2.62,-5.164,8.413,4.269,36.812,59.377)">
			<stop offset="0" stop-color="#f02757"/>
			<stop offset="1" stop-color="#f2695c"/>
		</linearGradient>
		<linearGradient id="g20" x2="1" gradientUnits="userSpaceOnUse" gradientTransform="matrix(2.307,-4.546,7.579,3.845,39.491,57.932)">
			<stop offset="0" stop-color="#f02757"/>
			<stop offset="1" stop-color="#f2695c"/>
		</linearGradient>
		<linearGradient id="g21" x2="1" gradientUnits="userSpaceOnUse" gradientTransform="matrix(3.738,-7.367,7.307,3.708,31.337,56.521)">
			<stop offset="0" stop-color="#f02757"/>
			<stop offset="1" stop-color="#f2695c"/>
		</linearGradient>
		<linearGradient id="g22" x2="1" gradientUnits="userSpaceOnUse" gradientTransform="matrix(-13.929,-16.84,18.801,-15.552,37.711,108.727)">
			<stop offset="0" stop-color="#ff6f66"/>
			<stop offset="1" stop-color="#ff866f"/>
		</linearGradient>
		<linearGradient id="g23" x2="1" gradientUnits="userSpaceOnUse" gradientTransform="matrix(-8.045,-9.726,15.579,-12.886,26.079,84.387)">
			<stop offset="0" stop-color="#ff6f66"/>
			<stop offset="1" stop-color="#ff866f"/>
		</linearGradient>
		<linearGradient id="g24" x2="1" gradientUnits="userSpaceOnUse" gradientTransform="matrix(8.359,-22.3,25.862,9.694,20.143,93.625)">
			<stop offset="0" stop-color="#ff866f"/>
			<stop offset="1" stop-color="#ff2f72"/>
		</linearGradient>
		<linearGradient id="g25" x2="1" gradientUnits="userSpaceOnUse" gradientTransform="matrix(2.902,-7.742,12.563,4.709,14.345,87.565)">
			<stop offset="0" stop-color="#ff866f"/>
			<stop offset="1" stop-color="#ff6f66"/>
		</linearGradient>
		<linearGradient id="g26" x2="1" gradientUnits="userSpaceOnUse" gradientTransform="matrix(8.347,-22.269,17.404,6.524,19.459,87.309)">
			<stop offset="0" stop-color="#f02d66"/>
			<stop offset="1" stop-color="#ff7e63"/>
		</linearGradient>
		<linearGradient id="g27" x2="1" gradientUnits="userSpaceOnUse" gradientTransform="matrix(2.647,-7.061,18.369,6.885,24.229,89.503)">
			<stop offset="0" stop-color="#f05688"/>
			<stop offset="1" stop-color="#f25263"/>
		</linearGradient>
		<linearGradient id="g28" x2="1" gradientUnits="userSpaceOnUse" gradientTransform="matrix(2.601,-6.938,11.304,4.237,27.201,86.97)">
			<stop offset="0" stop-color="#f02757"/>
			<stop offset="1" stop-color="#f2695c"/>
		</linearGradient>
		<linearGradient id="g29" x2="1" gradientUnits="userSpaceOnUse" gradientTransform="matrix(2.29,-6.108,10.183,3.817,30.403,84.754)">
			<stop offset="0" stop-color="#f02757"/>
			<stop offset="1" stop-color="#f2695c"/>
		</linearGradient>
		<linearGradient id="g30" x2="1" gradientUnits="userSpaceOnUse" gradientTransform="matrix(3.71,-9.897,9.818,3.68,19.834,84.115)">
			<stop offset="0" stop-color="#f02757"/>
			<stop offset="1" stop-color="#f2695c"/>
		</linearGradient>
	</defs>
	<style>
		.s0 { fill: url(#g1) } 
		.s1 { fill: url(#g2) } 
		.s2 { fill: url(#g3) } 
		.s3 { fill: url(#g4) } 
		.s4 { fill: url(#g5) } 
		.s5 { fill: url(#g6) } 
		.s6 { fill: #c91e34 } 
		.s7 { fill: url(#g7) } 
		.s8 { fill: url(#g8) } 
		.s9 { fill: url(#g9) } 
		.s10 { fill: url(#g10) } 
		.s11 { fill: url(#g11) } 
		.s12 { fill: url(#g12) } 
		.s13 { fill: url(#g13) } 
		.s14 { opacity: .3;mix-blend-mode: multiply;fill: #921970 } 
		.s15 { fill: url(#g14) } 
		.s16 { fill: url(#g15) } 
		.s17 { fill: url(#g16) } 
		.s18 { fill: url(#g17) } 
		.s19 { fill: url(#g18) } 
		.s20 { fill: url(#g19) } 
		.s21 { fill: url(#g20) } 
		.s22 { fill: url(#g21) } 
		.s23 { fill: url(#g22) } 
		.s24 { fill: url(#g23) } 
		.s25 { fill: url(#g24) } 
		.s26 { fill: url(#g25) } 
		.s27 { fill: url(#g26) } 
		.s28 { fill: url(#g27) } 
		.s29 { fill: url(#g28) } 
		.s30 { fill: url(#g29) } 
		.s31 { fill: url(#g30) } 
	</style>
	<g id="&lt;Group&gt;">
		<path id="&lt;Path&gt;" class="s0" d="m27.8 101.5c0 0-8.7-36.3-27.7-55.3 0 0 11-1.8 18.6 5.7 7.5 7.5 11.9 49.6 11.9 49.6z"/>
		<g id="&lt;Group&gt;">
			<path id="&lt;Path&gt;" class="s1" d="m12.9 69.1c0 0-1 3.5-0.5 5.2 0.5 1.8 14.1-1 16.5-7.6 2.4-6.5-5.7-10-5.7-10z"/>
			<path id="&lt;Path&gt;" class="s2" d="m11.9 69.7c0 0-4.9 3.2-5.9 0.7 0 0-3-7.9 4-9.8 0 0 7.2-0.2 8 3.5z"/>
			<path id="&lt;Path&gt;" class="s3" d="m11.7 67.3c0 0-4 0.9-5.4 4.9 0 0 2.4 1.4 4.2 1.1 1.8-0.3 4.5-3.8 4.5-3.8z"/>
			<path id="&lt;Path&gt;" class="s4" d="m14.9 61.5c0 0-1.8-2.8-1.1-5.4 0.6-2.6 9.6-3.7 12.3 1.2 2.6 5-1.2 12.4-6.3 12.6-5.1 0.3-4.9-8.4-4.9-8.4z"/>
			<path id="&lt;Path&gt;" class="s5" d="m14.4 66.3c0 0-4.6 2-4.7 3.2 0 1.1 5.2 2.2 8.9 0.9 3.8-1.3 4.1-3.6 4.1-3.6 0 0-6.5-1.7-8.3-0.5z"/>
			<path id="&lt;Path&gt;" class="s6" d="m12.5 62.7c0 0 0.6-0.6 2.4-1.2 1.7-0.6 4 0 4 0 0 0 3.6 1.1 3.5 3.6 0 2.6-3.7 2.8-3.7 2.8 0 0-8.9 1.6-6.2-5.2z"/>
			<path id="&lt;Path&gt;" class="s7" d="m16.5 66.2c0 0-0.4-2 0.9-2.8 1.3-0.9 4 0.4 4.4 2.3 0.4 1.9-3.3 2.8-4.9 2.3 0 0-3.4-0.6-3.6-2.8-0.1-2.3 3.2 1 3.2 1z"/>
			<path id="&lt;Path&gt;" class="s8" d="m14.6 63.1c0 0 1.4-1.7 4.8-1.6 3.4 0.1 3 3.6 3 3.6 0 0-0.7-2.9-3.6-2.9-2.9-0.1-4.2 0.9-4.2 0.9z"/>
			<path id="&lt;Path&gt;" class="s9" d="m14.9 61.5c0 0-2.4 1.2-2.2 4 0.3 2.8 5.7 2.6 5.7 2.6 0 0-5.3 0.5-7.7-2.1 0 0-1.4-2.8 4.2-4.5z"/>
		</g>
		<path id="&lt;Path&gt;" class="s10" d="m30.3 114.7c0 0-4.7-59.5 16.7-101.8 0 0-2.2 55.9-11.3 102.6z"/>
		<path id="&lt;Path&gt;" class="s11" d="m34.1 102.4c0 0-21-50.6-17.9-73.6 3.2-23 8.8-28.2 8.8-28.2 0 0 3.2 76.3 14.2 101.8z"/>
		<path id="&lt;Path&gt;" class="s12" d="m24.1 103.4c0 0 27.1-31.8 27.1-62.3 0 0 15.5 33.8-24 62.3z"/>
		<path id="&lt;Path&gt;" class="s13" d="m21.5 154.9l-4.4-62h26.5l-4 62.5z"/>
		<path id="&lt;Path&gt;" class="s14" d="m42.3 108.2c0 0-13.9 1-23 15.9l-2.2-31.2h26.5z"/>
		<g id="&lt;Group&gt;">
			<path id="&lt;Path&gt;" class="s15" d="m33.1 57.3c0 0-3.4 2.3-4.2 4.3-0.9 1.9 13.4 9.2 20.3 5 6.9-4.2 2-13.2 2-13.2z"/>
			<path id="&lt;Path&gt;" class="s16" d="m35.5 53.8c0 0-4.7-6.1-3.8-9 0 0 4.3-2 8.6-0.5 0 0 1.6 6.2-0.3 10.2z"/>
			<path id="&lt;Path&gt;" class="s17" d="m33.3 54.8c0 0-4.3-2.1-8.4 0.4 0 0 1.1 3.1 3 4.1 1.8 1 6.8-0.2 6.8-0.2z"/>
			<path id="&lt;Path&gt;" class="s18" d="m40.3 51.8c0 0 0.4-3.8 2.9-5.7 2.4-1.8 11.3 3.5 10.1 9.9-1.1 6.5-9.9 10.3-14.6 6.9-4.8-3.4 1.6-11.1 1.6-11.1z"/>
			<path id="&lt;Path&gt;" class="s19" d="m36.4 55.7c0 0-5.6-1.5-6.5-0.5-0.9 1.1 3.1 5.8 7.4 7.3 4.2 1.5 6.3-0.3 6.3-0.3 0 0-4.7-6.2-7.2-6.5z"/>
			<path id="&lt;Path&gt;" class="s6" d="m37.3 51.1c0 0 1 0 3 0.7 1.9 0.7 3.6 2.9 3.6 2.9 0 0 2.5 3.5 0.6 5.8-1.9 2.2-5.3-0.2-5.3-0.2 0 0-9.2-4.9-1.9-9.2z"/>
			<path id="&lt;Path&gt;" class="s20" d="m38.4 57.2c0 0 1.1-2.1 2.8-1.9 1.8 0.1 3.3 3.2 2.3 5.2-1 2-5 0.2-6.1-1.5 0 0-2.6-2.9-1.1-5 1.4-2.2 2.1 3.2 2.1 3.2z"/>
			<path id="&lt;Path&gt;" class="s21" d="m38.9 53c0 0 2.4-0.5 5.5 2 3 2.5 0.1 5.5 0.1 5.5 0 0 1.4-3.2-1.1-5.3-2.6-2.1-4.5-2.2-4.5-2.2z"/>
			<path id="&lt;Path&gt;" class="s22" d="m40.3 51.8c0 0-3-0.7-4.8 2-1.8 2.8 3.2 6.5 3.2 6.5 0 0-5.1-3.4-5.4-7.4 0 0 0.8-3.6 7-1.1z"/>
		</g>
		<g id="&lt;Group&gt;">
			<path id="&lt;Path&gt;" class="s23" d="m24.1 91.6c0 0 3.1 10.6 8.7 14.1 5.6 3.5 20.2-6 17.3-14.3-2.9-8.4-8.6-10.5-8.6-10.5z"/>
			<path id="&lt;Path&gt;" class="s24" d="m34.9 73c0 0-8.1-5.6-15.5 0.5-7.4 6.1 0 12.3 0 12.3 0 0 17-4.8 15.5-12.8z"/>
			<path id="&lt;Path&gt;" class="s25" d="m22.2 84.8c0 0-4 3.5-4.8 6.1-0.8 2.6 18.4 9.8 26.5 3.5 8.2-6.4 0.8-17 0.8-17z"/>
			<path id="&lt;Path&gt;" class="s26" d="m22 81.6c0 0-5.7-2.1-10.5 1.8 0 0 1.9 3.7 4.3 4.7 2.5 1 8.7-1.2 8.7-1.2z"/>
			<path id="&lt;Path&gt;" class="s27" d="m30.5 76.8c0 0 0-4.9 2.9-7.6 2.8-2.7 14.9 2.9 14.4 11.2-0.6 8.3-11.2 14.4-17.7 10.8-6.5-3.7 0.4-14.4 0.4-14.4z"/>
			<path id="&lt;Path&gt;" class="s28" d="m26.2 82.4c0 0-7.3-1.2-8.3 0.3-1 1.4 4.7 6.9 10.3 8.2 5.7 1.3 8-1.3 8-1.3 0 0-6.8-7.3-10-7.2z"/>
			<path id="&lt;Path&gt;" class="s6" d="m26.7 76.4c0 0 1.2-0.2 3.8 0.4 2.6 0.7 5.1 3.2 5.1 3.2 0 0 3.6 4.1 1.5 7.3-2.1 3.1-6.7 0.5-6.7 0.5 0 0-12.4-5-3.7-11.4z"/>
			<path id="&lt;Path&gt;" class="s29" d="m28.9 84c0 0 1.1-2.8 3.3-2.9 2.3 0 4.7 3.7 3.7 6.4-1 2.7-6.3 0.9-7.9-1 0 0-3.8-3.4-2.2-6.3 1.5-3 3.1 3.8 3.1 3.8z"/>
			<path id="&lt;Path&gt;" class="s30" d="m29 78.5c0 0 3-1 7.2 1.8 4.2 2.8 0.9 7 0.9 7 0 0 1.4-4.2-2.2-6.5-3.6-2.4-5.9-2.3-5.9-2.3z"/>
			<path id="&lt;Path&gt;" class="s31" d="m30.5 76.8c0 0-3.9-0.4-5.8 3.3-1.9 3.7 5 7.7 5 7.7 0 0-7-3.5-7.9-8.6 0 0 0.5-4.6 8.7-2.4z"/>
		</g>
	</g>
</svg>