<svg width="259" height="253" viewBox="0 0 259 253" fill="none" xmlns="http://www.w3.org/2000/svg">
<path d="M97.0005 151.074C76.993 151.455 33.3746 142.692 18.961 104.594C44.3524 113.392 92.5246 127.745 95.3556 119.688L95.2472 117.62C95.529 118.429 95.557 119.115 95.3556 119.688L97.0005 151.074Z" fill="#246279"/>
<path d="M190.574 112.074C208.418 121.131 242.817 149.346 237.658 189.751C219.369 170.063 183.573 134.774 177.292 140.558L176.416 142.436C176.547 141.589 176.845 140.97 177.292 140.558L190.574 112.074Z" fill="#246279"/>
<ellipse cx="144.5" cy="62.5" rx="57.5" ry="58.5" fill="#246279"/>
<ellipse cx="145.5" cy="164" rx="67.5" ry="71" fill="#246279"/>
<ellipse cx="145.5" cy="160" rx="54.5" ry="57" fill="white"/>
<ellipse cx="146.5" cy="101.5" rx="20.5" ry="39.5" fill="white"/>
<ellipse cx="22.3" cy="39.0483" rx="22.3" ry="39.0483" transform="matrix(-0.987688 -0.156434 -0.156434 0.987688 196.17 32.3752)" fill="white"/>
<ellipse cx="122.964" cy="67.4543" rx="22.3" ry="39.0483" transform="rotate(-9 122.964 67.4543)" fill="white"/>
<path fill-rule="evenodd" clip-rule="evenodd" d="M128.542 66C128.84 65.053 129 64.0452 129 63C129 57.4772 124.523 53 119 53C113.477 53 109 57.4772 109 63C109 64.0452 109.16 65.053 109.458 66C110.732 61.9429 114.522 59 119 59C123.478 59 127.268 61.9429 128.542 66Z" fill="#246279"/>
<path fill-rule="evenodd" clip-rule="evenodd" d="M181.542 66C181.84 65.053 182 64.0452 182 63C182 57.4772 177.523 53 172 53C166.477 53 162 57.4772 162 63C162 64.0452 162.16 65.053 162.458 66C163.732 61.9429 167.522 59 172 59C176.478 59 180.268 61.9429 181.542 66Z" fill="#246279"/>
<path d="M140.974 95.3647C142.774 99.1972 148.226 99.1972 150.026 95.3648L157.653 79.1257C159.211 75.8098 156.791 72 153.127 72H137.873C134.209 72 131.789 75.8097 133.347 79.1257L140.974 95.3647Z" fill="#9C6F00"/>
<path d="M141.365 90.9197C143.35 93.8376 147.65 93.8376 149.635 90.9197L157.188 79.8116C159.445 76.492 157.068 72 153.054 72H137.946C133.932 72 131.555 76.492 133.812 79.8116L141.365 90.9197Z" fill="#FFB701"/>
<ellipse cx="19" cy="6" rx="19" ry="6" transform="matrix(-1 0 0 1 190 230)" fill="#FFB701"/>
<ellipse cx="118" cy="236" rx="19" ry="6" fill="#FFB701"/>
<rect x="26.537" width="18" height="130" rx="0.5" transform="rotate(2 26.537 0)" fill="#FFB701"/>
<path d="M25.6646 24.9849L31.6609 25.1943" stroke="black"/>
<path d="M25.7344 22.9861L28.2329 23.0733" stroke="black"/>
<path d="M25.8042 20.9873L28.3027 21.0746" stroke="black"/>
<path d="M25.8739 18.9885L28.3724 19.0758" stroke="black"/>
<path d="M25.9437 16.9897L28.4422 17.077" stroke="black"/>
<path d="M26.0135 14.991L30.0111 15.1306" stroke="black"/>
<path d="M26.0834 12.9922L28.5819 13.0794" stroke="black"/>
<path d="M26.1532 10.9934L28.6517 11.0807" stroke="black"/>
<path d="M26.2229 8.99463L28.7214 9.08188" stroke="black"/>
<path d="M26.2927 6.99585L28.7912 7.0831" stroke="black"/>
<path d="M26.3625 4.99707L32.3589 5.20647" stroke="black"/>
<path d="M24.9666 44.9727L30.9629 45.1821" stroke="black"/>
<path d="M25.0364 42.9739L27.5349 43.0611" stroke="black"/>
<path d="M25.1062 40.9751L27.6047 41.0623" stroke="black"/>
<path d="M25.1759 38.9763L27.6744 39.0636" stroke="black"/>
<path d="M25.2457 36.9775L27.7442 37.0648" stroke="black"/>
<path d="M25.3156 34.9788L29.3131 35.1184" stroke="black"/>
<path d="M25.3854 32.98L27.8839 33.0672" stroke="black"/>
<path d="M25.4552 30.9812L27.9537 31.0684" stroke="black"/>
<path d="M25.5249 28.9824L28.0234 29.0697" stroke="black"/>
<path d="M25.5947 26.9836L28.0932 27.0709" stroke="black"/>
<path d="M25.6646 24.9849L31.6609 25.1943" stroke="black"/>
<path d="M24.2686 64.9604L30.2649 65.1698" stroke="black"/>
<path d="M24.3384 62.9617L26.8369 63.0489" stroke="black"/>
<path d="M24.4082 60.9629L26.9067 61.0501" stroke="black"/>
<path d="M24.4779 58.9641L26.9764 59.0514" stroke="black"/>
<path d="M24.5477 56.9653L27.0462 57.0526" stroke="black"/>
<path d="M24.6176 54.9666L28.6151 55.1062" stroke="black"/>
<path d="M24.6874 52.9678L27.1859 53.055" stroke="black"/>
<path d="M24.7572 50.969L27.2557 51.0562" stroke="black"/>
<path d="M24.8269 48.9702L27.3254 49.0575" stroke="black"/>
<path d="M24.8967 46.9714L27.3952 47.0587" stroke="black"/>
<path d="M24.9666 44.9727L30.9629 45.1821" stroke="black"/>
<path d="M23.5706 84.9482L29.5669 85.1576" stroke="black"/>
<path d="M23.6404 82.9495L26.1389 83.0367" stroke="black"/>
<path d="M23.7102 80.9507L26.2087 81.0379" stroke="black"/>
<path d="M23.7799 78.9519L26.2784 79.0392" stroke="black"/>
<path d="M23.8497 76.9531L26.3482 77.0404" stroke="black"/>
<path d="M23.9196 74.9543L27.9171 75.0939" stroke="black"/>
<path d="M23.9894 72.9556L26.4879 73.0428" stroke="black"/>
<path d="M24.0592 70.9568L26.5577 71.044" stroke="black"/>
<path d="M24.1289 68.958L26.6274 69.0453" stroke="black"/>
<path d="M24.1987 66.9592L26.6972 67.0465" stroke="black"/>
<path d="M24.2686 64.9604L30.2649 65.1698" stroke="black"/>
<path d="M22.8726 104.936L28.8689 105.145" stroke="black"/>
<path d="M22.9424 102.937L25.4409 103.025" stroke="black"/>
<path d="M23.0122 100.938L25.5107 101.026" stroke="black"/>
<path d="M23.0819 98.9397L25.5804 99.0269" stroke="black"/>
<path d="M23.1517 96.9409L25.6502 97.0282" stroke="black"/>
<path d="M23.2216 94.9421L27.2191 95.0817" stroke="black"/>
<path d="M23.2914 92.9434L25.7899 93.0306" stroke="black"/>
<path d="M23.3612 90.9446L25.8597 91.0318" stroke="black"/>
<path d="M23.4309 88.9458L25.9294 89.033" stroke="black"/>
<path d="M23.5007 86.947L25.9992 87.0343" stroke="black"/>
<path d="M23.5706 84.9482L29.5669 85.1576" stroke="black"/>
<path d="M22.1746 124.924L28.1709 125.133" stroke="black"/>
<path d="M22.2444 122.925L24.7429 123.012" stroke="black"/>
<path d="M22.3142 120.926L24.8127 121.014" stroke="black"/>
<path d="M22.3839 118.927L24.8824 119.015" stroke="black"/>
<path d="M22.4537 116.929L24.9522 117.016" stroke="black"/>
<path d="M22.5236 114.93L26.5211 115.07" stroke="black"/>
<path d="M22.5934 112.931L25.0919 113.018" stroke="black"/>
<path d="M22.6632 110.932L25.1617 111.02" stroke="black"/>
<path d="M22.7329 108.934L25.2314 109.021" stroke="black"/>
<path d="M22.8027 106.935L25.3012 107.022" stroke="black"/>
<path d="M22.8726 104.936L28.8689 105.145" stroke="black"/>
<path d="M34.9948 5.74141C35.2182 5.70519 35.3339 5.57214 35.342 5.34228C35.3482 5.16439 35.2839 5.02906 35.149 4.9363C35.0162 4.84361 34.7928 4.79278 34.4789 4.78382C34.5813 4.83342 34.6596 4.91221 34.7138 5.02016C34.77 5.13019 34.7958 5.25117 34.7912 5.38309C34.784 5.58896 34.7143 5.75063 34.5822 5.86809C34.4499 5.98754 34.2708 6.04333 34.045 6.03544C33.9091 6.03069 33.7881 5.99945 33.682 5.94172C33.5759 5.88598 33.4928 5.80303 33.4326 5.69286C33.3723 5.58469 33.3448 5.45465 33.3501 5.30274C33.3573 5.09687 33.4089 4.93757 33.5049 4.82486C33.6009 4.71214 33.7306 4.63562 33.8942 4.5953C34.0577 4.55498 34.2583 4.53898 34.4962 4.54728C35.2297 4.5729 35.5876 4.84155 35.5697 5.35324C35.5629 5.54912 35.5045 5.70118 35.3947 5.80941C35.2848 5.91764 35.1486 5.97892 34.986 5.99326L34.9948 5.74141ZM34.5623 5.31806C34.5653 5.23211 34.5502 5.15053 34.5168 5.07332C34.4855 4.99618 34.4347 4.93237 34.3644 4.88189C34.2961 4.83347 34.2109 4.80749 34.109 4.80393C33.9571 4.79862 33.8316 4.83827 33.7326 4.92286C33.6356 5.00753 33.5842 5.13181 33.5785 5.29571C33.5736 5.43563 33.6127 5.54806 33.6958 5.63301C33.7808 5.72003 33.8973 5.76612 34.0452 5.77129C34.2011 5.77673 34.3244 5.74101 34.4152 5.66413C34.5079 5.58732 34.557 5.47197 34.5623 5.31806Z" fill="black"/>
<path d="M34.5692 25.9233L34.606 24.871L33.9224 24.8471C33.9847 24.8953 34.0343 24.9651 34.0712 25.0564C34.11 25.1478 34.1276 25.2455 34.124 25.3494C34.1182 25.5153 34.0785 25.649 34.0049 25.7505C33.9333 25.8521 33.8418 25.9229 33.7303 25.9631C33.6208 26.0053 33.5051 26.0242 33.3831 26.02C33.2392 26.015 33.1112 25.9835 32.9992 25.9255C32.8871 25.8676 32.8001 25.7815 32.738 25.6673C32.6759 25.555 32.6477 25.417 32.6534 25.2531C32.6608 25.0432 32.7207 24.8752 32.8331 24.749C32.9456 24.6229 33.0923 24.5489 33.2732 24.5272L33.2638 24.7941C33.149 24.8161 33.0581 24.8679 32.9912 24.9497C32.9244 25.0314 32.8887 25.1362 32.8842 25.2641C32.8787 25.422 32.9215 25.5426 33.0127 25.6258C33.1058 25.7091 33.2303 25.7535 33.3862 25.7589C33.5421 25.7644 33.6635 25.7286 33.7502 25.6516C33.8389 25.5746 33.886 25.4582 33.8915 25.3023C33.8952 25.1964 33.8724 25.1025 33.8233 25.0207C33.776 24.941 33.7091 24.8817 33.6224 24.8426L33.6314 24.5848L34.8546 24.6275L34.8091 25.9317L34.5692 25.9233Z" fill="black"/>
<path d="M32.4737 44.411L32.6806 44.4182L34.101 45.5214L34.0896 45.8482L32.6624 45.7984L32.652 46.0982L32.4151 46.0899L32.4256 45.7901L31.9429 45.7733L31.9523 45.5034L32.435 45.5203L32.4737 44.411ZM33.8137 45.5804L32.6996 44.734L32.6714 45.5406L33.8137 45.5804Z" fill="black"/>
<path d="M32.9108 64.5585C33.0942 64.5789 33.2357 64.6549 33.3352 64.7865C33.4346 64.918 33.4808 65.0857 33.4737 65.2896C33.4689 65.4255 33.4399 65.5416 33.3865 65.6378C33.335 65.7361 33.2664 65.8087 33.1807 65.8557C33.095 65.9048 32.9991 65.9274 32.8932 65.9237C32.7693 65.9194 32.6636 65.8797 32.5762 65.8046C32.4887 65.7315 32.4339 65.6375 32.4119 65.5227L32.3969 65.5222C32.3604 65.651 32.2938 65.7517 32.1972 65.8244C32.1006 65.8971 31.9764 65.9308 31.8245 65.9255C31.7105 65.9215 31.6085 65.8919 31.5184 65.8367C31.4303 65.7816 31.362 65.7012 31.3137 65.5954C31.2653 65.4897 31.2437 65.3638 31.2488 65.2179C31.2562 65.0061 31.3173 64.8341 31.4319 64.702C31.5486 64.57 31.7092 64.4996 31.9136 64.4907L31.9044 64.7545C31.784 64.7643 31.6843 64.8099 31.6054 64.8912C31.5266 64.9725 31.4847 65.0831 31.4798 65.223C31.4749 65.3629 31.5072 65.4701 31.5766 65.5446C31.648 65.6211 31.7416 65.6614 31.8576 65.6654C32.0075 65.6707 32.1172 65.6245 32.1866 65.5268C32.2561 65.4292 32.2943 65.2795 32.3014 65.0776L32.3038 65.0086L32.5316 65.0166L32.5291 65.0885C32.5247 65.2725 32.5498 65.4125 32.6045 65.5084C32.6612 65.6045 32.7515 65.6546 32.8754 65.659C32.9814 65.6627 33.0675 65.6307 33.1339 65.5629C33.2003 65.4972 33.2357 65.4004 33.2401 65.2725C33.2445 65.1485 33.216 65.0475 33.1547 64.9693C33.0934 64.8911 33.009 64.8431 32.9015 64.8254L32.9108 64.5585Z" fill="black"/>
<path d="M30.8099 84.4908C31.0049 84.7518 31.1649 84.9565 31.2898 85.105C31.4167 85.2535 31.5494 85.3792 31.6879 85.4821C31.8283 85.587 31.9675 85.6419 32.1054 85.6468C32.2353 85.6513 32.3384 85.6229 32.4145 85.5615C32.4927 85.5022 32.5342 85.4026 32.539 85.2627C32.5438 85.1267 32.5045 85.0193 32.4212 84.9403C32.3399 84.8635 32.2283 84.8195 32.0866 84.8086L32.0958 84.5447C32.3194 84.5606 32.4899 84.6346 32.6074 84.7667C32.7249 84.8989 32.7801 85.0659 32.773 85.2678C32.7658 85.4737 32.7032 85.6346 32.585 85.7506C32.4669 85.8685 32.3078 85.924 32.1079 85.917C31.942 85.9112 31.7819 85.8556 31.6275 85.7501C31.475 85.6468 31.341 85.53 31.2255 85.3999C31.1119 85.2699 30.9796 85.1041 30.8286 84.9027L30.7926 85.9341L30.5647 85.9262L30.615 84.484L30.8099 84.4908Z" fill="black"/>
<path d="M31.7825 105.381L32.0313 105.389L32.0116 105.953L29.8439 105.877L29.8536 105.602L31.7724 105.669L31.7825 105.381Z" fill="black"/>
<path d="M30.303 124.451C30.6468 124.463 30.9127 124.529 31.1006 124.647C31.2906 124.766 31.3807 124.965 31.371 125.245C31.3612 125.523 31.2575 125.714 31.0597 125.82C30.8639 125.925 30.5941 125.971 30.2503 125.959C29.9006 125.947 29.6307 125.882 29.4407 125.763C29.2507 125.644 29.1606 125.446 29.1703 125.168C29.1801 124.888 29.2838 124.696 29.4816 124.591C29.6794 124.486 29.9532 124.439 30.303 124.451ZM30.2598 125.69C30.4337 125.696 30.581 125.689 30.7017 125.669C30.8244 125.651 30.924 125.608 31.0005 125.538C31.0769 125.471 31.1174 125.37 31.1221 125.236C31.1268 125.1 31.0935 124.995 31.0221 124.921C30.9505 124.848 30.8542 124.798 30.7332 124.77C30.614 124.743 30.4675 124.727 30.2936 124.721C30.1137 124.715 29.9624 124.721 29.8397 124.738C29.7169 124.758 29.6174 124.802 29.541 124.869C29.4645 124.938 29.4239 125.041 29.4191 125.177C29.4145 125.311 29.4479 125.414 29.5194 125.487C29.5908 125.561 29.6871 125.612 29.8083 125.638C29.9294 125.666 30.0799 125.683 30.2598 125.69Z" fill="black"/>
</svg>
