<svg width="259" height="253" viewBox="0 0 259 253" fill="none" xmlns="http://www.w3.org/2000/svg">
<path d="M97.0006 151.074C76.9931 151.455 33.3747 142.692 18.9611 104.594C44.3525 113.392 92.5247 127.745 95.3558 119.688L95.2473 117.62C95.5291 118.429 95.5571 119.115 95.3558 119.688L97.0006 151.074Z" fill="#246279"/>
<path d="M190.574 112.074C208.418 121.131 242.817 149.346 237.658 189.751C219.369 170.063 183.573 134.774 177.292 140.558L176.416 142.436C176.547 141.589 176.845 140.97 177.292 140.558L190.574 112.074Z" fill="#246279"/>
<ellipse cx="144.5" cy="62.5" rx="57.5" ry="58.5" fill="#246279"/>
<ellipse cx="145.5" cy="164" rx="67.5" ry="71" fill="#246279"/>
<ellipse cx="145.5" cy="160" rx="54.5" ry="57" fill="white"/>
<ellipse cx="146.5" cy="101.5" rx="20.5" ry="39.5" fill="white"/>
<ellipse cx="22.3" cy="39.0483" rx="22.3" ry="39.0483" transform="matrix(-0.987688 -0.156434 -0.156434 0.987688 196.17 32.3752)" fill="white"/>
<ellipse cx="122.964" cy="67.4543" rx="22.3" ry="39.0483" transform="rotate(-9 122.964 67.4543)" fill="white"/>
<path d="M140.974 95.3647C142.774 99.1972 148.226 99.1972 150.026 95.3648L157.653 79.1257C159.211 75.8098 156.791 72 153.127 72H137.873C134.209 72 131.789 75.8097 133.347 79.1257L140.974 95.3647Z" fill="#9C6F00"/>
<path d="M141.365 90.9197C143.35 93.8376 147.65 93.8376 149.635 90.9197L157.188 79.8116C159.445 76.492 157.068 72 153.054 72H137.946C133.932 72 131.555 76.492 133.812 79.8116L141.365 90.9197Z" fill="#FFB701"/>
<ellipse cx="19" cy="6" rx="19" ry="6" transform="matrix(-1 0 0 1 190 230)" fill="#FFB701"/>
<ellipse cx="118" cy="236" rx="19" ry="6" fill="#FFB701"/>
<circle cx="121" cy="62" r="10" transform="rotate(180 121 62)" fill="#313131"/>
<circle cx="122" cy="54" r="1" fill="white"/>
<path d="M125 55C125.833 55.3333 127.7 56.7 128.5 59.5" stroke="white" stroke-width="2" stroke-linecap="round"/>
<circle cx="170" cy="62" r="10" transform="rotate(180 170 62)" fill="#313131"/>
<circle cx="171" cy="54" r="1" fill="white"/>
<path d="M174 55C174.833 55.3333 176.7 56.7 177.5 59.5" stroke="white" stroke-width="2" stroke-linecap="round"/>
<rect x="26.5369" width="18" height="130" rx="0.5" transform="rotate(2 26.5369 0)" fill="#FFB701"/>
<path d="M25.6644 24.9849L31.6608 25.1943" stroke="black"/>
<path d="M25.7343 22.9861L28.2327 23.0733" stroke="black"/>
<path d="M25.804 20.9873L28.3025 21.0746" stroke="black"/>
<path d="M25.8738 18.9885L28.3723 19.0758" stroke="black"/>
<path d="M25.9436 16.9897L28.4421 17.077" stroke="black"/>
<path d="M26.0134 14.991L30.011 15.1306" stroke="black"/>
<path d="M26.0833 12.9922L28.5817 13.0794" stroke="black"/>
<path d="M26.153 10.9934L28.6515 11.0807" stroke="black"/>
<path d="M26.2228 8.99463L28.7213 9.08188" stroke="black"/>
<path d="M26.2926 6.99585L28.7911 7.0831" stroke="black"/>
<path d="M26.3624 4.99707L32.3588 5.20647" stroke="black"/>
<path d="M24.9664 44.9727L30.9628 45.1821" stroke="black"/>
<path d="M25.0363 42.9739L27.5347 43.0611" stroke="black"/>
<path d="M25.106 40.9751L27.6045 41.0623" stroke="black"/>
<path d="M25.1758 38.9763L27.6743 39.0636" stroke="black"/>
<path d="M25.2456 36.9775L27.7441 37.0648" stroke="black"/>
<path d="M25.3154 34.9788L29.313 35.1184" stroke="black"/>
<path d="M25.3853 32.98L27.8837 33.0672" stroke="black"/>
<path d="M25.455 30.9812L27.9535 31.0684" stroke="black"/>
<path d="M25.5248 28.9824L28.0233 29.0697" stroke="black"/>
<path d="M25.5946 26.9836L28.0931 27.0709" stroke="black"/>
<path d="M25.6644 24.9849L31.6608 25.1943" stroke="black"/>
<path d="M24.2684 64.9604L30.2648 65.1698" stroke="black"/>
<path d="M24.3383 62.9617L26.8367 63.0489" stroke="black"/>
<path d="M24.408 60.9629L26.9065 61.0501" stroke="black"/>
<path d="M24.4778 58.9641L26.9763 59.0514" stroke="black"/>
<path d="M24.5476 56.9653L27.0461 57.0526" stroke="black"/>
<path d="M24.6174 54.9666L28.615 55.1062" stroke="black"/>
<path d="M24.6873 52.9678L27.1857 53.055" stroke="black"/>
<path d="M24.757 50.969L27.2555 51.0562" stroke="black"/>
<path d="M24.8268 48.9702L27.3253 49.0575" stroke="black"/>
<path d="M24.8966 46.9714L27.3951 47.0587" stroke="black"/>
<path d="M24.9664 44.9727L30.9628 45.1821" stroke="black"/>
<path d="M23.5705 84.9482L29.5668 85.1576" stroke="black"/>
<path d="M23.6403 82.9495L26.1388 83.0367" stroke="black"/>
<path d="M23.7101 80.9507L26.2086 81.0379" stroke="black"/>
<path d="M23.7799 78.9519L26.2784 79.0392" stroke="black"/>
<path d="M23.8497 76.9531L26.3481 77.0404" stroke="black"/>
<path d="M23.9195 74.9543L27.9171 75.0939" stroke="black"/>
<path d="M23.9893 72.9556L26.4878 73.0428" stroke="black"/>
<path d="M24.0591 70.9568L26.5576 71.044" stroke="black"/>
<path d="M24.1289 68.958L26.6274 69.0453" stroke="black"/>
<path d="M24.1987 66.9592L26.6971 67.0465" stroke="black"/>
<path d="M24.2685 64.9604L30.2648 65.1698" stroke="black"/>
<path d="M22.8725 104.936L28.8688 105.145" stroke="black"/>
<path d="M22.9423 102.937L25.4408 103.025" stroke="black"/>
<path d="M23.0121 100.938L25.5106 101.026" stroke="black"/>
<path d="M23.0819 98.9397L25.5804 99.0269" stroke="black"/>
<path d="M23.1517 96.9409L25.6501 97.0282" stroke="black"/>
<path d="M23.2215 94.9421L27.2191 95.0817" stroke="black"/>
<path d="M23.2913 92.9434L25.7898 93.0306" stroke="black"/>
<path d="M23.3611 90.9446L25.8596 91.0318" stroke="black"/>
<path d="M23.4309 88.9458L25.9294 89.033" stroke="black"/>
<path d="M23.5007 86.947L25.9991 87.0343" stroke="black"/>
<path d="M23.5705 84.9482L29.5668 85.1576" stroke="black"/>
<path d="M22.1745 124.924L28.1708 125.133" stroke="black"/>
<path d="M22.2443 122.925L24.7428 123.012" stroke="black"/>
<path d="M22.3141 120.926L24.8126 121.014" stroke="black"/>
<path d="M22.3839 118.927L24.8824 119.015" stroke="black"/>
<path d="M22.4537 116.929L24.9522 117.016" stroke="black"/>
<path d="M22.5235 114.93L26.5211 115.07" stroke="black"/>
<path d="M22.5933 112.931L25.0918 113.018" stroke="black"/>
<path d="M22.6631 110.932L25.1616 111.02" stroke="black"/>
<path d="M22.7329 108.934L25.2314 109.021" stroke="black"/>
<path d="M22.8027 106.935L25.3011 107.022" stroke="black"/>
<path d="M22.8725 104.936L28.8688 105.145" stroke="black"/>
<path d="M34.9947 5.74141C35.2181 5.70519 35.3338 5.57214 35.3418 5.34228C35.3481 5.16439 35.2837 5.02906 35.1489 4.9363C35.016 4.84361 34.7927 4.79278 34.4788 4.78382C34.5811 4.83342 34.6594 4.91221 34.7137 5.02016C34.7699 5.13019 34.7957 5.25117 34.7911 5.38309C34.7839 5.58896 34.7142 5.75063 34.582 5.86809C34.4498 5.98754 34.2707 6.04333 34.0449 6.03544C33.9089 6.03069 33.788 5.99945 33.6819 5.94172C33.5758 5.88598 33.4926 5.80303 33.4324 5.69286C33.3722 5.58469 33.3447 5.45465 33.35 5.30274C33.3572 5.09687 33.4088 4.93757 33.5048 4.82486C33.6008 4.71214 33.7305 4.63562 33.894 4.5953C34.0575 4.55498 34.2582 4.53898 34.4961 4.54728C35.2296 4.5729 35.5875 4.84155 35.5696 5.35324C35.5628 5.54912 35.5044 5.70118 35.3946 5.80941C35.2847 5.91764 35.1485 5.97892 34.9859 5.99326L34.9947 5.74141ZM34.5622 5.31806C34.5652 5.23211 34.5501 5.15053 34.5167 5.07332C34.4854 4.99618 34.4346 4.93237 34.3643 4.88189C34.296 4.83347 34.2108 4.80749 34.1089 4.80393C33.957 4.79862 33.8315 4.83827 33.7325 4.92286C33.6355 5.00753 33.5841 5.13181 33.5784 5.29571C33.5735 5.43563 33.6126 5.54806 33.6957 5.63301C33.7807 5.72003 33.8972 5.76612 34.0451 5.77129C34.201 5.77673 34.3243 5.74101 34.415 5.66413C34.5078 5.58732 34.5568 5.47197 34.5622 5.31806Z" fill="black"/>
<path d="M34.5691 25.9233L34.6059 24.871L33.9223 24.8471C33.9846 24.8953 34.0342 24.9651 34.0711 25.0564C34.1099 25.1478 34.1275 25.2455 34.1239 25.3494C34.1181 25.5153 34.0784 25.649 34.0048 25.7505C33.9332 25.8521 33.8417 25.9229 33.7302 25.9631C33.6207 26.0053 33.5049 26.0242 33.383 26.02C33.2391 26.015 33.1111 25.9835 32.9991 25.9255C32.887 25.8676 32.8 25.7815 32.7379 25.6673C32.6758 25.555 32.6476 25.417 32.6533 25.2531C32.6607 25.0432 32.7206 24.8752 32.833 24.749C32.9455 24.6229 33.0922 24.5489 33.273 24.5272L33.2637 24.7941C33.1489 24.8161 33.058 24.8679 32.9911 24.9497C32.9242 25.0314 32.8885 25.1362 32.8841 25.2641C32.8786 25.422 32.9214 25.5426 33.0125 25.6258C33.1057 25.7091 33.2302 25.7535 33.3861 25.7589C33.542 25.7644 33.6633 25.7286 33.7501 25.6516C33.8388 25.5746 33.8859 25.4582 33.8914 25.3023C33.8951 25.1964 33.8723 25.1025 33.8231 25.0207C33.7759 24.941 33.7089 24.8817 33.6222 24.8426L33.6312 24.5848L34.8545 24.6275L34.809 25.9317L34.5691 25.9233Z" fill="black"/>
<path d="M32.4736 44.411L32.6805 44.4182L34.1008 45.5214L34.0894 45.8482L32.6623 45.7984L32.6518 46.0982L32.415 46.0899L32.4254 45.7901L31.9427 45.7733L31.9522 45.5034L32.4349 45.5203L32.4736 44.411ZM33.8136 45.5804L32.6995 44.734L32.6713 45.5406L33.8136 45.5804Z" fill="black"/>
<path d="M32.9107 64.5585C33.0941 64.5789 33.2356 64.6549 33.335 64.7865C33.4345 64.918 33.4807 65.0857 33.4736 65.2896C33.4688 65.4255 33.4397 65.5416 33.3863 65.6378C33.3349 65.7361 33.2663 65.8087 33.1806 65.8557C33.0949 65.9048 32.999 65.9274 32.8931 65.9237C32.7691 65.9194 32.6635 65.8797 32.576 65.8046C32.4885 65.7315 32.4338 65.6375 32.4118 65.5227L32.3968 65.5222C32.3603 65.651 32.2937 65.7517 32.1971 65.8244C32.1005 65.8971 31.9763 65.9308 31.8244 65.9255C31.7104 65.9215 31.6084 65.8919 31.5183 65.8367C31.4301 65.7816 31.3619 65.7012 31.3136 65.5954C31.2652 65.4897 31.2436 65.3638 31.2487 65.2179C31.2561 65.0061 31.3171 64.8341 31.4318 64.702C31.5485 64.57 31.7091 64.4996 31.9135 64.4907L31.9043 64.7545C31.7839 64.7643 31.6842 64.8099 31.6053 64.8912C31.5264 64.9725 31.4845 65.0831 31.4797 65.223C31.4748 65.3629 31.5071 65.4701 31.5765 65.5446C31.6479 65.6211 31.7415 65.6614 31.8575 65.6654C32.0074 65.6707 32.117 65.6245 32.1865 65.5268C32.2559 65.4292 32.2942 65.2795 32.3012 65.0776L32.3036 65.0086L32.5315 65.0166L32.529 65.0885C32.5246 65.2725 32.5497 65.4125 32.6044 65.5084C32.6611 65.6045 32.7514 65.6546 32.8753 65.659C32.9812 65.6627 33.0674 65.6307 33.1338 65.5629C33.2001 65.4972 33.2355 65.4004 33.24 65.2725C33.2443 65.1485 33.2158 65.0475 33.1545 64.9693C33.0932 64.8911 33.0089 64.8431 32.9014 64.8254L32.9107 64.5585Z" fill="black"/>
<path d="M30.8099 84.4908C31.0049 84.7518 31.1648 84.9565 31.2897 85.105C31.4166 85.2535 31.5493 85.3792 31.6878 85.4821C31.8282 85.587 31.9674 85.6419 32.1053 85.6468C32.2352 85.6513 32.3383 85.6229 32.4145 85.5615C32.4926 85.5022 32.5341 85.4026 32.539 85.2627C32.5437 85.1267 32.5045 85.0193 32.4212 84.9403C32.3398 84.8635 32.2283 84.8195 32.0866 84.8086L32.0958 84.5447C32.3194 84.5606 32.4899 84.6346 32.6073 84.7667C32.7248 84.8989 32.78 85.0659 32.7729 85.2678C32.7658 85.4737 32.7031 85.6346 32.585 85.7506C32.4668 85.8685 32.3078 85.924 32.1079 85.917C31.942 85.9112 31.7818 85.8556 31.6274 85.7501C31.4749 85.6468 31.3409 85.53 31.2254 85.3999C31.1119 85.2699 30.9796 85.1041 30.8285 84.9027L30.7925 85.9341L30.5646 85.9262L30.615 84.484L30.8099 84.4908Z" fill="black"/>
<path d="M31.7824 105.381L32.0312 105.389L32.0116 105.953L29.8439 105.877L29.8535 105.602L31.7723 105.669L31.7824 105.381Z" fill="black"/>
<path d="M30.3029 124.451C30.6467 124.463 30.9126 124.529 31.1006 124.647C31.2906 124.766 31.3807 124.965 31.3709 125.245C31.3612 125.523 31.2574 125.714 31.0597 125.82C30.8639 125.925 30.5941 125.971 30.2503 125.959C29.9005 125.947 29.6306 125.882 29.4406 125.763C29.2507 125.644 29.1605 125.446 29.1702 125.168C29.18 124.888 29.2838 124.696 29.4816 124.591C29.6794 124.486 29.9532 124.439 30.3029 124.451ZM30.2597 125.69C30.4336 125.696 30.5809 125.689 30.7017 125.669C30.8244 125.651 30.924 125.608 31.0004 125.538C31.0768 125.471 31.1174 125.37 31.122 125.236C31.1268 125.1 31.0934 124.995 31.022 124.921C30.9505 124.848 30.8542 124.798 30.7331 124.77C30.6139 124.743 30.4674 124.727 30.2935 124.721C30.1136 124.715 29.9623 124.721 29.8396 124.738C29.7169 124.758 29.6173 124.802 29.5409 124.869C29.4644 124.938 29.4238 125.041 29.4191 125.177C29.4144 125.311 29.4478 125.414 29.5193 125.487C29.5908 125.561 29.6871 125.612 29.8082 125.638C29.9293 125.666 30.0798 125.683 30.2597 125.69Z" fill="black"/>
</svg>
