<svg width="227" height="249" viewBox="0 0 227 249" fill="none" xmlns="http://www.w3.org/2000/svg">
<ellipse cx="112.5" cy="58.5" rx="57.5" ry="58.5" fill="#246279"/>
<ellipse cx="19" cy="6" rx="19" ry="6" transform="matrix(-1 0 0 1 158 226)" fill="#FFB701"/>
<ellipse cx="86" cy="232" rx="19" ry="6" fill="#FFB701"/>
<ellipse cx="113.5" cy="160" rx="67.5" ry="71" fill="#246279"/>
<path d="M68.4262 107.074C50.5818 116.131 16.1828 144.346 21.3422 184.751C39.6314 165.063 75.4265 129.774 81.7084 135.558L82.5839 137.436C82.4526 136.589 82.1551 135.97 81.7084 135.558L68.4262 107.074Z" fill="#246279"/>
<path d="M158.574 107.074C176.418 116.131 210.817 144.346 205.658 184.751C187.369 165.063 151.573 129.774 145.292 135.558L144.416 137.436C144.547 136.589 144.845 135.97 145.292 135.558L158.574 107.074Z" fill="#246279"/>
<ellipse cx="113.5" cy="156" rx="54.5" ry="57" fill="white"/>
<ellipse cx="114.5" cy="97.5" rx="20.5" ry="39.5" fill="white"/>
<ellipse cx="22.3" cy="39.0483" rx="22.3" ry="39.0483" transform="matrix(-0.987688 -0.156434 -0.156434 0.987688 164.17 28.3752)" fill="white"/>
<ellipse cx="90.9643" cy="63.4543" rx="22.3" ry="39.0483" transform="rotate(-9 90.9643 63.4543)" fill="white"/>
<path fill-rule="evenodd" clip-rule="evenodd" d="M96.5422 62C96.8396 61.053 97 60.0452 97 59C97 53.4772 92.5228 49 87 49C81.4772 49 77 53.4772 77 59C77 60.0452 77.1604 61.053 77.4578 62C78.7321 57.9429 82.5224 55 87 55C91.4776 55 95.2679 57.9429 96.5422 62Z" fill="#246279"/>
<path fill-rule="evenodd" clip-rule="evenodd" d="M149.542 62C149.84 61.053 150 60.0452 150 59C150 53.4772 145.523 49 140 49C134.477 49 130 53.4772 130 59C130 60.0452 130.16 61.053 130.458 62C131.732 57.9429 135.522 55 140 55C144.478 55 148.268 57.9429 149.542 62Z" fill="#246279"/>
<path d="M108.974 91.3647C110.774 95.1972 116.226 95.1972 118.026 91.3648L125.653 75.1257C127.211 71.8098 124.791 68 121.127 68H105.873C102.209 68 99.7894 71.8097 101.347 75.1257L108.974 91.3647Z" fill="#9C6F00"/>
<path d="M109.365 86.9197C111.35 89.8376 115.65 89.8376 117.635 86.9197L125.188 75.8116C127.445 72.492 125.068 68 121.054 68H105.946C101.932 68 99.5546 72.492 101.812 75.8116L109.365 86.9197Z" fill="#FFB701"/>
</svg>
