<svg width="234" height="249" viewBox="0 0 234 249" fill="none" xmlns="http://www.w3.org/2000/svg">
<path d="M164.651 139.4C181.997 129.422 214.872 99.4458 207.606 59.3659C190.372 79.9842 156.473 117.098 149.897 111.65L148.924 109.821C149.099 110.66 149.429 111.263 149.897 111.65L164.651 139.4Z" fill="#246279"/>
<ellipse cx="112.5" cy="58.5" rx="57.5" ry="58.5" fill="#246279"/>
<ellipse cx="113.5" cy="160" rx="67.5" ry="71" fill="#246279"/>
<path d="M68.4262 107.074C50.5818 116.131 16.1828 144.346 21.3422 184.751C39.6314 165.063 75.4266 129.774 81.7084 135.558L82.5839 137.436C82.4526 136.589 82.1552 135.97 81.7084 135.558L68.4262 107.074Z" fill="#246279"/>
<ellipse cx="113.5" cy="156" rx="54.5" ry="57" fill="white"/>
<ellipse cx="114.5" cy="97.5" rx="20.5" ry="39.5" fill="white"/>
<ellipse cx="22.3" cy="39.0483" rx="22.3" ry="39.0483" transform="matrix(-0.987688 -0.156434 -0.156434 0.987688 164.17 28.3752)" fill="white"/>
<ellipse cx="90.9644" cy="63.4543" rx="22.3" ry="39.0483" transform="rotate(-9 90.9644 63.4543)" fill="white"/>
<path d="M108.974 91.3647C110.774 95.1972 116.226 95.1972 118.026 91.3648L125.653 75.1257C127.211 71.8098 124.791 68 121.127 68H105.873C102.209 68 99.7894 71.8097 101.347 75.1257L108.974 91.3647Z" fill="#9C6F00"/>
<path d="M109.365 86.9197C111.35 89.8376 115.65 89.8376 117.635 86.9197L125.188 75.8116C127.445 72.492 125.068 68 121.054 68H105.946C101.932 68 99.5546 72.492 101.812 75.8116L109.365 86.9197Z" fill="#FFB701"/>
<ellipse cx="19" cy="6" rx="19" ry="6" transform="matrix(-1 0 0 1 158 226)" fill="#FFB701"/>
<ellipse cx="86" cy="232" rx="19" ry="6" fill="#FFB701"/>
<circle cx="89" cy="58" r="10" transform="rotate(180 89 58)" fill="#313131"/>
<circle cx="90" cy="50" r="1" fill="white"/>
<path d="M93 51C93.8333 51.3333 95.7 52.7 96.5 55.5" stroke="white" stroke-width="2" stroke-linecap="round"/>
<circle cx="138" cy="58" r="10" transform="rotate(180 138 58)" fill="#313131"/>
<circle cx="139" cy="50" r="1" fill="white"/>
<path d="M142 51C142.833 51.3333 144.7 52.7 145.5 55.5" stroke="white" stroke-width="2" stroke-linecap="round"/>
</svg>
