<svg version="1.2" xmlns="http://www.w3.org/2000/svg" viewBox="0 0 148 338" width="148" height="338">
	<title>&lt;Group&gt;</title>
	<defs>
		<radialGradient id="g1" cx="0" cy="0" r="1" gradientUnits="userSpaceOnUse" gradientTransform="matrix(62.454,0,0,62.454,74.231,285.207)">
			<stop offset="0" stop-color="#921a28"/>
			<stop offset="1" stop-color="#57000d"/>
		</radialGradient>
		<radialGradient id="g2" cx="0" cy="0" r="1" gradientUnits="userSpaceOnUse" gradientTransform="matrix(9.98,0,0,9.98,76.299,231.037)">
			<stop offset=".022" stop-color="#371b32"/>
			<stop offset=".994" stop-color="#180428"/>
		</radialGradient>
		<radialGradient id="g3" cx="0" cy="0" r="1" gradientUnits="userSpaceOnUse" gradientTransform="matrix(16.412,0,0,16.412,81.084,17.614)">
			<stop offset=".022" stop-color="#371b32"/>
			<stop offset=".994" stop-color="#180428"/>
		</radialGradient>
	</defs>
	<style>
		.s0 { fill: #270e40 } 
		.s1 { fill: url(#g1) } 
		.s2 { fill: #ffffff } 
		.s3 { fill: url(#g2) } 
		.s4 { mix-blend-mode: soft-light;fill: #ffffff } 
		.s5 { opacity: .5;mix-blend-mode: soft-light;fill: #ffffff } 
		.s6 { fill: url(#g3) } 
		.s7 { fill: #5a4153 } 
	</style>
	<g id="&lt;Group&gt;">
		<g id="&lt;Group&gt;">
			<path id="&lt;Path&gt;" class="s0" d="m77.1 225l-1.6-0.1 4.1-199.6h1.5z"/>
		</g>
		<g id="&lt;Group&gt;">
			<path id="&lt;Path&gt;" class="s1" d="m0.7 330.8c0 0 27.1-91.2 73.5-94.5 48.6-3.4 73.6 97.8 73.6 97.8 0 0-42.6-28.8-147.1-3.3z"/>
			<path id="&lt;Path&gt;" class="s2" d="m0.7 330.8c0 0 58.9 12.5 147.1 3.3 0 0-21.5-14.2-69.9-13.8-50.6 0.4-77.2 10.5-77.2 10.5z"/>
			<path id="&lt;Path&gt;" class="s3" d="m64.5 238.4l-0.3-10.1c0 0 13-8.6 24.1-2.3l0.1 12.4c0 0-8.7-3.3-23.9 0z"/>
			<path id="&lt;Path&gt;" class="s4" d="m111.2 255.6c0 0-5.3-4-17.1-6.8l12.1 45.7c0 0 22.4 0.9 32.3 10.8 0 0-10.5-30.1-27.3-49.7z"/>
			<path id="&lt;Path&gt;" class="s4" d="m91.3 248.1c0 0-7.7-2.1-19.6-1.4l2.5 47.9c0 0 17.4-1.8 27.8 0z"/>
			<path id="&lt;Path&gt;" class="s5" d="m9.7 323c0 0 16.7-39 30.3-59.1l9.9-1.4c0 0-11.4 28.9-18.2 54.8z"/>
		</g>
		<path id="&lt;Path&gt;" class="s6" d="m65.1 4.6l3.8 29.8h23l5.2-29.4c0 0-15.1-9.1-32-0.4z"/>
		<path id="&lt;Path&gt;" class="s7" d="m68.9 34.4c0 0 8.8-5.3 23 0 0 0-8.3 2.8-23 0z"/>
	</g>
</svg>