<svg width="133" height="186" viewBox="0 0 133 186" fill="none" xmlns="http://www.w3.org/2000/svg">
<g clip-path="url(#clip0_171_657)">
<path d="M133 186C0 186 73 186 73 186H0C0 149.053 29.7731 119.102 66.5 119.102C103.227 119.102 133 149.053 133 186Z" fill="#484848"/>
<path d="M45 102H87V135.198H45V102Z" fill="#484848"/>
<path d="M23 41C23 29.9543 31.9543 21 43 21H88C99.0457 21 108 29.9543 108 41V86C108 97.0457 99.0457 106 88 106H43C31.9543 106 23 97.0457 23 86V41Z" fill="#E7BC98"/>
<path d="M70 81.5999C70 78.8538 66.8843 75.9937 65.8381 75.1104C65.7406 75.0387 65.6219 75 65.5 75C65.3781 75 65.2594 75.0387 65.1619 75.1104C64.1157 75.9937 61 78.8538 61 81.5999C61 82.7669 61.4741 83.8861 62.318 84.7113C63.1619 85.5364 64.3065 86 65.5 86C66.6935 86 67.8381 85.5364 68.682 84.7113C69.5259 83.8861 70 82.7669 70 81.5999Z" fill="#E7BC98" style="mix-blend-mode:multiply"/>
<path d="M30 68C30 72.4183 26.866 76 23 76C19.134 76 16 72.4183 16 68C16 63.5817 19.134 60 23 60C26.866 60 30 63.5817 30 68Z" fill="#E7BC98"/>
<path d="M115 68C115 72.4183 111.866 76 108 76C104.134 76 101 72.4183 101 68C101 63.5817 104.134 60 108 60C111.866 60 115 63.5817 115 68Z" fill="#E7BC98"/>
<path d="M23 73C20.7909 73 19 70.7614 19 68C19 65.2386 20.7909 63 23 63V73Z" fill="#E7BC98" style="mix-blend-mode:multiply"/>
<path d="M108 73C110.209 73 112 70.7614 112 68C112 65.2386 110.209 63 108 63V73Z" fill="#E7BC98" style="mix-blend-mode:multiply"/>
<path d="M51 87C52.1667 89.8333 56.6 95.1 65 93.5" stroke="#E7BC98" stroke-width="4" stroke-linecap="round" style="mix-blend-mode:multiply"/>
<path d="M42 19.5C42 26.4036 37.7467 32 32.5 32C27.2533 32 23 26.4036 23 19.5C23 12.5964 27.2533 7 32.5 7C37.7467 7 42 12.5964 42 19.5Z" fill="#674238"/>
<path d="M58 15.5C58 22.4036 53.7467 28 48.5 28C43.2533 28 39 22.4036 39 15.5C39 8.59644 43.2533 3 48.5 3C53.7467 3 58 8.59644 58 15.5Z" fill="#674238"/>
<path d="M89 18.5C89 25.4036 93.2533 31 98.5 31C103.747 31 108 25.4036 108 18.5C108 11.5964 103.747 6 98.5 6C93.2533 6 89 11.5964 89 18.5Z" fill="#674238"/>
<path d="M73 14.5C73 21.4036 77.2533 27 82.5 27C87.7467 27 92 21.4036 92 14.5C92 7.59644 87.7467 2 82.5 2C77.2533 2 73 7.59644 73 14.5Z" fill="#674238"/>
<path d="M75 11C75 17.0751 70.7467 22 65.5 22C60.2533 22 56 17.0751 56 11C56 4.92487 60.2533 0 65.5 0C70.7467 0 75 4.92487 75 11Z" fill="#674238"/>
<path d="M65 32H41.5H23V20.5L65 16V32Z" fill="#674238"/>
<path d="M32.5 60H23V35V32H28H41.5C33.1 32 32.5 41 32.5 60Z" fill="url(#paint0_linear_171_657)"/>
<path d="M63.5 32H91H108V20.5L62 16L63.5 32Z" fill="#674238"/>
<path d="M98.2296 60H108V35V32H102.858H88.9734C97.6125 32 98.2296 41 98.2296 60Z" fill="url(#paint1_linear_171_657)"/>
<rect x="41" y="50" width="20" height="28.75" rx="10" fill="white"/>
<rect x="52" y="57" width="7" height="15" rx="3" fill="#1E81C8"/>
<circle cx="53.5" cy="58.5" r="2.5" fill="white"/>
<rect x="70" y="50" width="20" height="28.75" rx="10" fill="white"/>
<rect x="81" y="57" width="7" height="15" rx="3" fill="#1E81C8"/>
<circle cx="82.5" cy="58.5" r="2.5" fill="white"/>
</g>
<defs>
<linearGradient id="paint0_linear_171_657" x1="33" y1="40" x2="33.2094" y2="60" gradientUnits="userSpaceOnUse">
<stop stop-color="#674238"/>
<stop offset="1" stop-color="#E7BC98" stop-opacity="0"/>
</linearGradient>
<linearGradient id="paint1_linear_171_657" x1="97.7154" y1="40" x2="97.5118" y2="60.0001" gradientUnits="userSpaceOnUse">
<stop stop-color="#674238"/>
<stop offset="1" stop-color="#E7BC98" stop-opacity="0"/>
</linearGradient>
<clipPath id="clip0_171_657">
<rect width="133" height="186" fill="white"/>
</clipPath>
</defs>
</svg>
