<svg width="99" height="85" viewBox="0 0 99 85" fill="none" xmlns="http://www.w3.org/2000/svg">
<path d="M7 20C7 8.9543 15.9543 0 27 0H72C83.0457 0 92 8.95431 92 20V65C92 76.0457 83.0457 85 72 85H27C15.9543 85 7 76.0457 7 65V20Z" fill="#E7BC98"/>
<path d="M54 60.5999C54 57.8538 50.8843 54.9937 49.8381 54.1104C49.7406 54.0387 49.6219 54 49.5 54C49.3781 54 49.2594 54.0387 49.1619 54.1104C48.1157 54.9937 45 57.8538 45 60.5999C45 61.7669 45.4741 62.8861 46.318 63.7113C47.1619 64.5364 48.3065 65 49.5 65C50.6935 65 51.8381 64.5364 52.682 63.7113C53.5259 62.8861 54 61.7669 54 60.5999Z" fill="#C3946D"/>
<path d="M14 47C14 51.4183 10.866 55 7 55C3.13401 55 0 51.4183 0 47C0 42.5817 3.13401 39 7 39C10.866 39 14 42.5817 14 47Z" fill="#E7BC98"/>
<path d="M99 47C99 51.4183 95.866 55 92 55C88.134 55 85 51.4183 85 47C85 42.5817 88.134 39 92 39C95.866 39 99 42.5817 99 47Z" fill="#E7BC98"/>
<path d="M7 52C4.79086 52 3 49.7614 3 47C3 44.2386 4.79086 42 7 42V52Z" fill="#C3946D"/>
<path d="M92 52C94.2091 52 96 49.7614 96 47C96 44.2386 94.2091 42 92 42V52Z" fill="#C3946D"/>
<path d="M35 66C36.1667 68.8333 40.6 74.1 49 72.5" stroke="#C3946D" stroke-width="4" stroke-linecap="round"/>
<path d="M7 20C7 8.9543 15.9543 0 27 0H72C83.0457 0 92 8.95431 92 20V65C92 76.0457 83.0457 85 72 85H27C15.9543 85 7 76.0457 7 65V20Z" fill="#E7BC98"/>
<path d="M54 60.5999C54 57.8538 50.8843 54.9937 49.8381 54.1104C49.7406 54.0387 49.6219 54 49.5 54C49.3781 54 49.2594 54.0387 49.1619 54.1104C48.1157 54.9937 45 57.8538 45 60.5999C45 61.7669 45.4741 62.8861 46.318 63.7113C47.1619 64.5364 48.3065 65 49.5 65C50.6935 65 51.8381 64.5364 52.682 63.7113C53.5259 62.8861 54 61.7669 54 60.5999Z" fill="#C3946D"/>
<path d="M14 47C14 51.4183 10.866 55 7 55C3.13401 55 0 51.4183 0 47C0 42.5817 3.13401 39 7 39C10.866 39 14 42.5817 14 47Z" fill="#E7BC98"/>
<path d="M99 47C99 51.4183 95.866 55 92 55C88.134 55 85 51.4183 85 47C85 42.5817 88.134 39 92 39C95.866 39 99 42.5817 99 47Z" fill="#E7BC98"/>
<path d="M7 52C4.79086 52 3 49.7614 3 47C3 44.2386 4.79086 42 7 42V52Z" fill="#C3946D"/>
<path d="M92 52C94.2091 52 96 49.7614 96 47C96 44.2386 94.2091 42 92 42V52Z" fill="#C3946D"/>
<path d="M35 66C36.1667 68.8333 40.6 74.1 49 72.5" stroke="#C3946D" stroke-width="4" stroke-linecap="round"/>
</svg>
