<svg width="85" height="60" viewBox="0 0 85 60" fill="none" xmlns="http://www.w3.org/2000/svg">
<path d="M19 19.5C19 26.4036 14.7467 32 9.5 32C4.25329 32 0 26.4036 0 19.5C0 12.5964 4.25329 7 9.5 7C14.7467 7 19 12.5964 19 19.5Z" fill="#F6CA45"/>
<path d="M35 15.5C35 22.4036 30.7467 28 25.5 28C20.2533 28 16 22.4036 16 15.5C16 8.59644 20.2533 3 25.5 3C30.7467 3 35 8.59644 35 15.5Z" fill="#F6CA45"/>
<path d="M66 18.5C66 25.4036 70.2533 31 75.5 31C80.7467 31 85 25.4036 85 18.5C85 11.5964 80.7467 6 75.5 6C70.2533 6 66 11.5964 66 18.5Z" fill="#F6CA45"/>
<path d="M50 14.5C50 21.4036 54.2533 27 59.5 27C64.7467 27 69 21.4036 69 14.5C69 7.59644 64.7467 2 59.5 2C54.2533 2 50 7.59644 50 14.5Z" fill="#F6CA45"/>
<path d="M52 11C52 17.0751 47.7467 22 42.5 22C37.2533 22 33 17.0751 33 11C33 4.92487 37.2533 0 42.5 0C47.7467 0 52 4.92487 52 11Z" fill="#F6CA45"/>
<path d="M42 32H18.5H0V20.5L42 16V32Z" fill="#F6CA45"/>
<path d="M9.5 60H0V35V32H5H18.5C10.1 32 9.5 41 9.5 60Z" fill="url(#paint0_linear_322_10740)"/>
<path d="M40.5 32H68H85V20.5L39 16L40.5 32Z" fill="#F6CA45"/>
<path d="M75.2296 60H85V35V32H79.8577H65.9734C74.6125 32 75.2296 41 75.2296 60Z" fill="url(#paint1_linear_322_10740)"/>
<defs>
<linearGradient id="paint0_linear_322_10740" x1="10" y1="40" x2="10.2094" y2="60" gradientUnits="userSpaceOnUse">
<stop stop-color="#F6CA45"/>
<stop offset="1" stop-color="#E7BC98" stop-opacity="0"/>
</linearGradient>
<linearGradient id="paint1_linear_322_10740" x1="74.7154" y1="40" x2="74.5118" y2="60.0001" gradientUnits="userSpaceOnUse">
<stop stop-color="#F6CA45"/>
<stop offset="1" stop-color="#E7BC98" stop-opacity="0"/>
</linearGradient>
</defs>
</svg>
