<svg width="87" height="65" viewBox="0 0 87 65" fill="none" xmlns="http://www.w3.org/2000/svg">
<path d="M14.9789 65H8V40V37H11.6731H21.5904C15.4196 37 14.9789 46 14.9789 65Z" fill="url(#paint0_linear_322_10852)"/>
<path d="M71.0211 65H78V40V37H74.3269H64.4096C70.5804 37 71.0211 46 71.0211 65Z" fill="url(#paint1_linear_322_10852)"/>
<path d="M8 35C8 21.1929 19.1929 10 33 10H53C66.8071 10 78 21.1929 78 35V37H8V35Z" fill="#F6CA45"/>
<path d="M50 29.0962C46.2073 29.2179 40.2986 33.2615 49.4011 47C34.5496 42.9077 31.6351 32.6282 32.0344 28L50 29.0962Z" fill="#F6CA45"/>
<path d="M66 17.9038C62.2073 17.7821 56.2986 13.7385 65.4011 0C50.5496 4.09231 47.6351 14.3718 48.0344 19L66 17.9038Z" fill="#F6CA45"/>
<path d="M58 28.8077C55.6822 28.8974 52.0713 31.8769 57.634 42C48.5581 38.9846 46.777 31.4103 47.021 28L58 28.8077Z" fill="#F6CA45"/>
<defs>
<linearGradient id="paint0_linear_322_10852" x1="15.3462" y1="45" x2="15.6312" y2="64.9981" gradientUnits="userSpaceOnUse">
<stop stop-color="#F6CA45"/>
<stop offset="1" stop-color="#E7BC98" stop-opacity="0"/>
</linearGradient>
<linearGradient id="paint1_linear_322_10852" x1="70.6538" y1="45" x2="70.3688" y2="64.9981" gradientUnits="userSpaceOnUse">
<stop stop-color="#F6CA45"/>
<stop offset="1" stop-color="#E7BC98" stop-opacity="0"/>
</linearGradient>
</defs>
</svg>
