<svg width="85" height="121" viewBox="0 0 85 121" fill="none" xmlns="http://www.w3.org/2000/svg">
<path d="M0 42.5C0 19.0279 19.0279 0 42.5 0V0C65.9721 0 85 19.0279 85 42.5V78.5C85 101.972 65.9721 121 42.5 121V121C19.0279 121 0 101.972 0 78.5V42.5Z" fill="#F6CA45"/>
<path d="M4 45C4 31.1929 15.1929 20 29 20H56C69.8071 20 81 31.1929 81 45V65.9306C81 82.4991 67.5685 95.9306 51 95.9306H34C17.4315 95.9306 4 82.4991 4 65.9306V45Z" fill="white"/>
<path d="M23 115C33.5316 113.098 57.4501 106.653 65 96" stroke="#8F7627" stroke-width="2" stroke-linecap="round"/>
</svg>
