<svg width="120" height="148" viewBox="0 0 120 148" fill="none" xmlns="http://www.w3.org/2000/svg">
<path fill-rule="evenodd" clip-rule="evenodd" d="M58 91V85H57C73.0163 85 86 72.0163 86 56V44C86 27.9837 73.0163 15 57 15H43C26.9837 15 14 27.9837 14 44V56C14 72.0163 26.9837 85 43 85H44V91H30.0328C12.4793 84.3515 0 67.3831 0 47.5C0 21.8188 20.8188 1 46.5 1C47.8727 1 49.2315 1.05948 50.5739 1.176C73.5018 0.781448 105.438 19.5791 100 79.3984C94.4 140.998 108.5 137.232 119.5 126.898C119.333 134.898 114.7 150.198 97.5 147.398C97.1905 147.348 96.8851 147.294 96.5837 147.238L81.836 95.8063C81.5502 94.8099 80.9817 93.9713 80.2424 93.3527C79.3589 91.9398 77.7892 91 76 91H65.3099L65.1296 90.1178C64.4179 90.4294 63.697 90.7236 62.9672 91H58Z" fill="#F6CA45"/>
<path d="M48.5 4C41 19.3333 21 49.9 1 49.5C3.66667 37.3333 16.9 11.2 48.5 4Z" fill="#F6CA45"/>
<path d="M85.273 21.3949C69.3305 27.494 33.857 36.2091 19.5028 22.2766C29.7507 15.1971 57.2518 5.10952 85.273 21.3949Z" fill="#F6CA45"/>
</svg>
