<svg width="142" height="148" viewBox="0 0 142 148" fill="none" xmlns="http://www.w3.org/2000/svg">
<path fill-rule="evenodd" clip-rule="evenodd" d="M80 91V85H79C95.0163 85 108 72.0163 108 56V44C108 27.9837 95.0163 15 79 15H65C48.9837 15 36 27.9837 36 44V56C36 72.0163 48.9837 85 65 85H66V91H52.0328C34.4793 84.3515 22 67.3831 22 47.5C22 21.8188 42.8188 1 68.5 1C69.8727 1 71.2315 1.05948 72.5739 1.176C95.5018 0.781445 127.438 19.5791 122 79.3984C116.4 140.998 130.5 137.232 141.5 126.898C141.333 134.898 136.7 150.198 119.5 147.398C119.191 147.348 118.885 147.294 118.584 147.238L103.836 95.8063C103.55 94.8099 102.982 93.9713 102.242 93.3526C101.359 91.9398 99.7892 91 98 91H87.3099L87.1296 90.1178C86.4179 90.4294 85.697 90.7236 84.9672 91H80Z" fill="#F6CA45"/>
<path d="M70.5 4C63 19.3333 43 49.9 23 49.5C25.6667 37.3333 38.9 11.2 70.5 4Z" fill="#F6CA45"/>
<path d="M107.273 21.3949C91.3305 27.494 55.857 36.2091 41.5028 22.2766C51.7507 15.1971 79.2518 5.10952 107.273 21.3949Z" fill="#F6CA45"/>
<path fill-rule="evenodd" clip-rule="evenodd" d="M56.5328 91C55.803 90.7236 55.0821 90.4294 54.3704 90.1178L54.1901 91H48.5C46.7108 91 45.1411 91.9398 44.2576 93.3526C43.5183 93.9713 42.9498 94.8099 42.664 95.8063L28.3498 145.726C26.4435 146.454 24.3378 147.018 22 147.398C4.8 150.198 0.166664 134.898 0 126.898C11 137.232 25.1 140.998 19.5 79.3984C14.0619 19.5791 45.9982 0.781445 68.9261 1.176C70.2685 1.05948 71.6273 1 73 1C98.6812 1 119.5 21.8188 119.5 47.5C119.5 67.3831 107.021 84.3515 89.4672 91H80.5V85H76.5C92.5163 85 105.5 72.0163 105.5 56V44C105.5 27.9837 92.5163 15 76.5 15H62.5C46.4837 15 33.5 27.9837 33.5 44V56C33.5 72.0163 46.4837 85 62.5 85H66.5V91H56.5328Z" fill="#F6CA45"/>
</svg>
