<svg width="72" height="71" viewBox="0 0 72 71" fill="none" xmlns="http://www.w3.org/2000/svg">
<path d="M0 20C0 8.9543 8.95431 0 20 0H52C63.0457 0 72 8.95431 72 20V41C72 57.5685 58.5685 71 42 71H30C13.4315 71 0 57.5685 0 41V20Z" fill="#E7BC98"/>
<path d="M25 49C26.1667 51.8333 30.6 57.1 39 55.5" stroke="#C3946D" stroke-width="4" stroke-linecap="round"/>
<path d="M42.5 45.25C42.5 43.3776 40.4229 41.4276 39.7254 40.8254C39.6604 40.7765 39.5813 40.7501 39.5 40.7501C39.4187 40.7501 39.3396 40.7765 39.2746 40.8254C38.5771 41.4276 36.5 43.3776 36.5 45.25C36.5 46.0456 36.8161 46.8087 37.3787 47.3713C37.9413 47.9339 38.7044 48.25 39.5 48.25C40.2956 48.25 41.0587 47.9339 41.6213 47.3713C42.1839 46.8087 42.5 46.0456 42.5 45.25Z" fill="#C3946D"/>
</svg>
